<svg xmlns="http://www.w3.org/2000/svg" version="1.1" xmlns:xlink="http://www.w3.org/1999/xlink" xmlns:svgjs="http://svgjs.dev/svgjs" width="1000" height="1000" viewBox="0 0 1000 1000"><rect width="1000" height="1000" fill="#ffffff"></rect><g transform="matrix(0.7,0,0,0.7,150.00002346093743,106.25)"><svg viewBox="0 0 320 360" data-background-color="#ffffff" preserveAspectRatio="xMidYMid meet" height="1125" width="1000" xmlns="http://www.w3.org/2000/svg" xmlns:xlink="http://www.w3.org/1999/xlink"><g id="tight-bounds" transform="matrix(1,0,0,1,0.00001072500003829191,0)"><svg viewBox="0 0 320 360" height="360" width="320"><g><svg></svg></g><g><svg viewBox="0 0 320 360" height="360" width="320"><g><path transform="translate(-21.67367,-1.67367) scale(3.63347,3.63347)" d="M87.84 28.16c-3.42-5.92-31.01-21.84-37.84-21.84-6.83 0-34.41 15.92-37.84 21.84-3.19 5.51-3.19 38.18 0 43.69 3.43 5.91 31.01 21.83 37.84 21.83 6.83 0 34.42-15.92 37.84-21.84 3.19-5.51 3.19-38.17 0-43.68zM91.14 26.25c-3.98-6.88-32.88-23.75-41.14-23.75-8.26 0-37.16 16.87-41.14 23.75-3.86 6.66-3.86 40.84 0 47.5 3.98 6.88 32.88 23.75 41.14 23.75 8.26 0 37.16-16.87 41.14-23.74 3.86-6.67 3.86-40.85 0-47.51zM88.78 72.39c-3.51 6.07-31.78 22.38-38.78 22.38-7 0-35.27-16.32-38.78-22.39-3.27-5.65-3.27-39.13 0-44.78 3.51-6.06 31.78-22.37 38.78-22.37 7 0 35.27 16.32 38.78 22.38 3.27 5.65 3.27 39.13 0 44.78z" fill="#000000" fill-rule="nonzero" stroke="none" stroke-width="1" stroke-linecap="butt" stroke-linejoin="miter" stroke-miterlimit="10" stroke-dasharray="" stroke-dashoffset="0" font-family="none" font-weight="none" font-size="none" text-anchor="none" style="mix-blend-mode: normal" data-fill-palette-color="tertiary"></path></g><g transform="matrix(1,0,0,1,48,120.55938493364309)"><svg viewBox="0 0 224 118.88123013271384" height="118.88123013271384" width="224"><g><svg viewBox="0 0 381.31248412444444 202.37007668604855" height="118.88123013271384" width="224"><g transform="matrix(1,0,0,1,157.31248412444444,0)"><svg viewBox="0 0 224 202.37007668604855" height="202.37007668604855" width="224"><g id="textblocktransform"><svg viewBox="0 0 224 202.37007668604855" height="202.37007668604855" width="224" id="textblock"><g><svg viewBox="0 0 224 168.1081837037037" height="168.1081837037037" width="224"><g transform="matrix(1,0,0,1,0,0)"><svg width="224" viewBox="-8.009999999999991 -48.289999999999985 173.29 116.91999999999999" height="168.1081837037037" data-palette-color="#ffffff"><svg></svg><svg></svg><g class="wordmark-text-0" data-fill-palette-color="quaternary" id="text-0"><path d="M52.49-2.93l0.05 0.15c0 0.26-0.09 0.437-0.27 0.53-0.18 0.1-0.22 0.33-0.12 0.69v0c-0.26 0.033-0.49 0.163-0.69 0.39-0.193 0.227-0.42 0.34-0.68 0.34v0c-0.16 0-0.29-0.08-0.39-0.24v0c-0.067 0.227-0.19 0.387-0.37 0.48-0.173 0.1-0.36 0.183-0.56 0.25-0.193 0.067-0.387 0.147-0.58 0.24-0.2 0.1-0.33 0.247-0.39 0.44v0h-0.25c-0.387 0-0.687 0.163-0.9 0.49-0.213 0.327-0.467 0.49-0.76 0.49v0c-0.093 0-0.157-0.017-0.19-0.05v0c-0.167 0.033-0.233 0.14-0.2 0.32 0.033 0.18-0.017 0.3-0.15 0.36v0h-0.24c-0.847 0-1.71 0.18-2.59 0.54-0.88 0.36-1.767 0.767-2.66 1.22-0.893 0.453-1.803 0.883-2.73 1.29-0.927 0.413-1.863 0.683-2.81 0.81v0c-0.193 0.193-0.43 0.347-0.71 0.46-0.273 0.12-0.573 0.21-0.9 0.27-0.327 0.067-0.643 0.14-0.95 0.22-0.313 0.08-0.583 0.22-0.81 0.42v0c-0.813 0.067-1.627 0.213-2.44 0.44-0.813 0.227-1.62 0.447-2.42 0.66-0.793 0.207-1.607 0.383-2.44 0.53-0.827 0.147-1.663 0.19-2.51 0.13v0c-0.26 0.193-0.547 0.347-0.86 0.46-0.307 0.113-0.59 0.267-0.85 0.46v0c-1.333-0.193-2.66-0.34-3.98-0.44-1.32-0.093-2.613-0.32-3.88-0.68v0c0-0.1-0.033-0.167-0.1-0.2-0.067-0.027-0.14-0.05-0.22-0.07-0.08-0.013-0.153-0.047-0.22-0.1-0.067-0.047-0.067-0.133 0-0.26v0c-0.293 0.093-0.553 0.14-0.78 0.14v0c-0.327 0-0.643-0.08-0.95-0.24-0.313-0.167-0.64-0.347-0.98-0.54-0.34-0.193-0.69-0.38-1.05-0.56-0.36-0.18-0.75-0.27-1.17-0.27v0c-0.26-0.26-0.497-0.52-0.71-0.78-0.213-0.26-0.367-0.587-0.46-0.98v0c-0.133-0.033-0.273-0.033-0.42 0-0.147 0.033-0.27 0.05-0.37 0.05v0c-0.193 0-0.29-0.063-0.29-0.19v0c-0.68-0.493-1.167-1.017-1.46-1.57-0.293-0.553-0.62-1.187-0.98-1.9v0c-0.1-0.227-0.223-0.413-0.37-0.56-0.147-0.147-0.25-0.317-0.31-0.51v0c-0.133-0.327-0.217-0.67-0.25-1.03-0.033-0.36-0.057-0.71-0.07-1.05-0.02-0.34-0.07-0.683-0.15-1.03-0.08-0.34-0.233-0.657-0.46-0.95v0c0.067-1.233 0.203-2.47 0.41-3.71 0.213-1.233 0.483-2.47 0.81-3.71v0c0.127-0.553 0.273-1.09 0.44-1.61 0.16-0.52 0.307-1.057 0.44-1.61v0c0.033-0.193 0.09-0.333 0.17-0.42 0.08-0.08 0.153-0.137 0.22-0.17v0l0.19-0.14c0.067-0.067 0.117-0.167 0.15-0.3v0l0.39-1.66c0.26-1.073 0.603-2.113 1.03-3.12 0.42-1.013 0.99-1.943 1.71-2.79v0c0.06-0.813 0.247-1.587 0.56-2.32 0.307-0.727 0.657-1.44 1.05-2.14 0.387-0.7 0.777-1.393 1.17-2.08 0.387-0.68 0.697-1.413 0.93-2.2v0l-0.05-0.09c0-0.133 0.073-0.207 0.22-0.22 0.147-0.02 0.25-0.03 0.31-0.03v0c0.033-0.52 0.157-0.967 0.37-1.34 0.213-0.373 0.44-0.723 0.68-1.05 0.247-0.327 0.477-0.677 0.69-1.05 0.213-0.373 0.333-0.82 0.36-1.34v0c0.62-0.36 1.15-0.81 1.59-1.35 0.44-0.533 0.863-1.087 1.27-1.66 0.407-0.567 0.837-1.12 1.29-1.66 0.46-0.533 1.013-0.963 1.66-1.29v0c0.167-0.193 0.217-0.47 0.15-0.83v0c1.007-0.747 2.05-1.413 3.13-2 1.073-0.587 2.08-1.27 3.02-2.05v0h1.76c0.427-0.327 0.9-0.49 1.42-0.49v0c0.387 0 0.767 0.08 1.14 0.24 0.38 0.167 0.74 0.353 1.08 0.56 0.34 0.213 0.69 0.427 1.05 0.64 0.36 0.213 0.717 0.367 1.07 0.46v0c0.36 0.493 0.613 1.057 0.76 1.69 0.147 0.633 0.3 1.227 0.46 1.78v0c-0.293 0.88-0.47 1.783-0.53 2.71-0.067 0.927-0.183 1.847-0.35 2.76v0c-0.227 0.26-0.42 0.543-0.58 0.85-0.167 0.313-0.337 0.623-0.51 0.93-0.18 0.307-0.37 0.6-0.57 0.88-0.193 0.273-0.453 0.493-0.78 0.66v0c-0.26 0.947-0.667 1.697-1.22 2.25-0.553 0.553-1.09 1.203-1.61 1.95v0c-0.487 0.327-1.007 0.49-1.56 0.49v0c-0.453 0-0.86-0.107-1.22-0.32-0.36-0.213-0.687-0.49-0.98-0.83-0.293-0.34-0.53-0.713-0.71-1.12-0.173-0.407-0.31-0.807-0.41-1.2v0c0.227-0.687 0.593-1.273 1.1-1.76 0.5-0.487 1.013-0.973 1.54-1.46 0.52-0.493 0.973-1.017 1.36-1.57 0.393-0.553 0.59-1.22 0.59-2v0c0-0.06-0.01-0.123-0.03-0.19-0.013-0.067-0.02-0.133-0.02-0.2v0c0-0.127 0.05-0.24 0.15-0.34 0.093-0.1 0.19-0.18 0.29-0.24v0l0.29-0.25c0.1-0.093 0.15-0.207 0.15-0.34v0c0-0.133-0.067-0.263-0.2-0.39v0c-1.233 0.1-2.167 0.31-2.8 0.63-0.64 0.327-1.137 0.687-1.49 1.08-0.36 0.387-0.68 0.77-0.96 1.15-0.273 0.373-0.67 0.64-1.19 0.8v0c-0.1 0.26-0.24 0.48-0.42 0.66-0.18 0.18-0.367 0.36-0.56 0.54-0.193 0.18-0.363 0.383-0.51 0.61-0.147 0.227-0.237 0.503-0.27 0.83v0h-0.88c-0.127 0.293-0.313 0.577-0.56 0.85-0.247 0.28-0.49 0.55-0.73 0.81-0.247 0.26-0.46 0.543-0.64 0.85-0.18 0.313-0.237 0.647-0.17 1v0c-0.36 0.133-0.627 0.347-0.8 0.64-0.18 0.293-0.433 0.537-0.76 0.73v0 0.29c0 0.26-0.05 0.507-0.15 0.74-0.093 0.227-0.11 0.47-0.05 0.73v0c-0.387 0.36-0.67 0.807-0.85 1.34-0.18 0.54-0.367 1.037-0.56 1.49v0c-0.46 0.227-0.77 0.537-0.93 0.93-0.16 0.387-0.24 0.843-0.24 1.37v0c-0.493 0.487-0.933 1.053-1.32 1.7-0.393 0.653-0.743 1.323-1.05 2.01-0.313 0.68-0.6 1.38-0.86 2.1-0.26 0.713-0.537 1.38-0.83 2v0 1.41c-0.453 0.527-0.77 1.14-0.95 1.84-0.18 0.7-0.447 1.327-0.8 1.88v0c-0.067 0.353-0.093 0.71-0.08 1.07 0.02 0.36 0.03 0.717 0.03 1.07v0c0 0.393-0.033 0.8-0.1 1.22-0.067 0.427-0.18 0.82-0.34 1.18v0c0.127 0.487 0.223 1.063 0.29 1.73 0.067 0.667 0.18 1.333 0.34 2 0.167 0.667 0.397 1.27 0.69 1.81 0.287 0.533 0.707 0.9 1.26 1.1v0c0.133 0.713 0.453 1.257 0.96 1.63 0.5 0.373 1.077 0.677 1.73 0.91 0.653 0.227 1.32 0.43 2 0.61 0.687 0.18 1.29 0.413 1.81 0.7v0c0.193-0.093 0.42-0.14 0.68-0.14v0c0.26 0 0.497 0.033 0.71 0.1 0.213 0.06 0.45 0.123 0.71 0.19v0c0.453-0.067 1.013-0.1 1.68-0.1 0.667 0 1.343-0.023 2.03-0.07 0.687-0.047 1.32-0.137 1.9-0.27 0.587-0.127 1.06-0.37 1.42-0.73v0c0.227 0 0.38 0.063 0.46 0.19 0.087 0.133 0.243 0.2 0.47 0.2v0c0.227 0 0.567-0.057 1.02-0.17 0.46-0.113 0.933-0.243 1.42-0.39 0.487-0.147 0.95-0.303 1.39-0.47 0.44-0.16 0.757-0.307 0.95-0.44v0c0.1 0.033 0.2 0.05 0.3 0.05v0h0.34c0.453 0 0.877-0.08 1.27-0.24 0.387-0.16 0.81-0.21 1.27-0.15v0c1.493-0.747 3.013-1.39 4.56-1.93 1.547-0.533 3.117-1.013 4.71-1.44v0c0.2-0.293 0.437-0.503 0.71-0.63 0.28-0.133 0.583-0.24 0.91-0.32 0.32-0.08 0.643-0.143 0.97-0.19 0.327-0.053 0.637-0.127 0.93-0.22v0c0.193-0.1 0.363-0.223 0.51-0.37 0.147-0.147 0.333-0.27 0.56-0.37v0c0.233-0.093 0.487-0.157 0.76-0.19 0.28-0.033 0.557-0.073 0.83-0.12 0.28-0.053 0.54-0.127 0.78-0.22 0.247-0.1 0.45-0.263 0.61-0.49v0c0.46 0.193 0.923 0.403 1.39 0.63 0.473 0.233 0.873 0.56 1.2 0.98zM71-33.59v0c0 0.293-0.123 0.537-0.37 0.73-0.247 0.193-0.37 0.34-0.37 0.44v0c0 0.193 0.033 0.33 0.1 0.41 0.067 0.087 0.1 0.177 0.1 0.27v0 0.25c-0.327 0.32-0.57 0.67-0.73 1.05-0.167 0.373-0.297 0.763-0.39 1.17-0.1 0.407-0.19 0.82-0.27 1.24-0.08 0.427-0.187 0.833-0.32 1.22v0c-0.16 0.393-0.37 0.727-0.63 1-0.267 0.28-0.48 0.6-0.64 0.96v0c-0.26 0.587-0.457 1.187-0.59 1.8-0.127 0.62-0.403 1.19-0.83 1.71v0 0.25c-0.027 0.227 0.04 0.42 0.2 0.58v0c-0.62 0.813-1.11 1.783-1.47 2.91-0.353 1.12-0.643 2.29-0.87 3.51-0.233 1.22-0.43 2.443-0.59 3.67-0.16 1.22-0.357 2.317-0.59 3.29v0c0.167 0.72 0.42 1.397 0.76 2.03 0.34 0.633 0.673 1.29 1 1.97v0c0.653 0.167 1.28 0.397 1.88 0.69 0.607 0.293 1.04 0.763 1.3 1.41v0c-0.067 0.653-0.28 1.16-0.64 1.52-0.36 0.36-0.8 0.733-1.32 1.12v0c-0.353-0.127-0.647-0.233-0.88-0.32-0.227-0.08-0.567-0.087-1.02-0.02v0c-0.62-0.487-1.2-0.877-1.74-1.17-0.533-0.293-1.013-0.8-1.44-1.52v0c-0.06-0.093-0.157-0.14-0.29-0.14v0h-0.44c-0.16-0.393-0.353-0.81-0.58-1.25-0.233-0.44-0.463-0.893-0.69-1.36-0.227-0.473-0.42-0.947-0.58-1.42-0.167-0.473-0.25-0.903-0.25-1.29v0c0-1.667 0.157-3.32 0.47-4.96 0.307-1.647 0.46-3.317 0.46-5.01v0-0.48c-0.653 0.16-1.297 0.387-1.93 0.68-0.633 0.293-1.277 0.52-1.93 0.68v0c-0.227 0.067-0.357 0.18-0.39 0.34-0.033 0.167-0.13 0.3-0.29 0.4v0c-0.327 0.027-0.637 0.05-0.93 0.07-0.293 0.013-0.57 0.02-0.83 0.02v0c-0.553 0-1.13-0.023-1.73-0.07-0.607-0.047-1.2-0.153-1.78-0.32-0.587-0.16-1.133-0.387-1.64-0.68-0.507-0.293-0.953-0.667-1.34-1.12v0c-0.067 0.027-0.15 0.057-0.25 0.09-0.093 0.033-0.19 0.05-0.29 0.05v0c-0.1 0-0.197-0.017-0.29-0.05-0.1-0.033-0.183-0.063-0.25-0.09v0c-0.26-0.36-0.47-0.753-0.63-1.18v0l-0.49-1.27c-0.16-0.42-0.34-0.827-0.54-1.22-0.193-0.387-0.453-0.743-0.78-1.07v0c-0.093-0.587-0.14-1.157-0.14-1.71v0c0-0.587 0.04-1.157 0.12-1.71 0.08-0.553 0.2-1.107 0.36-1.66v0c-0.127-0.387-0.217-0.793-0.27-1.22-0.047-0.42-0.07-0.843-0.07-1.27v0c0-0.487 0.05-0.99 0.15-1.51 0.093-0.52 0.257-1 0.49-1.44 0.227-0.44 0.543-0.807 0.95-1.1 0.407-0.293 0.903-0.44 1.49-0.44v0c0.647 0 1.247 0.17 1.8 0.51 0.553 0.34 1.093 0.69 1.62 1.05v0c0.06 0.393 0.107 0.777 0.14 1.15 0.033 0.373 0.05 0.773 0.05 1.2v0c0 0.78-0.04 1.567-0.12 2.36-0.08 0.8-0.12 1.607-0.12 2.42v0c0 0.847 0.103 1.637 0.31 2.37 0.213 0.733 0.597 1.423 1.15 2.07v0h0.2c0.26-0.027 0.487 0.023 0.68 0.15 0.193 0.133 0.42 0.2 0.68 0.2v0c0.233 0 0.413-0.09 0.54-0.27 0.133-0.18 0.297-0.27 0.49-0.27v0c0.193 0 0.34 0.033 0.44 0.1 0.1 0.06 0.18 0.09 0.24 0.09v0c0.36 0 0.767-0.13 1.22-0.39 0.46-0.26 0.753-0.553 0.88-0.88v0c0.133 0.1 0.297 0.15 0.49 0.15v0c0.26 0 0.503-0.08 0.73-0.24 0.233-0.167 0.527-0.25 0.88-0.25v0c0.2 0 0.273-0.12 0.22-0.36-0.047-0.247 0.01-0.403 0.17-0.47v0c0.393-0.16 0.827-0.397 1.3-0.71 0.473-0.307 0.853-0.493 1.14-0.56v0c0.167-0.42 0.37-0.817 0.61-1.19 0.247-0.373 0.5-0.723 0.76-1.05v0c0.1-0.753 0.297-1.47 0.59-2.15 0.293-0.687 0.603-1.37 0.93-2.05 0.32-0.687 0.627-1.37 0.92-2.05 0.293-0.687 0.49-1.403 0.59-2.15v0c0.36-0.36 0.643-0.75 0.85-1.17 0.213-0.427 0.403-0.85 0.57-1.27v0c0.32-0.1 0.727-0.157 1.22-0.17 0.487-0.02 0.91-0.03 1.27-0.03v0h0.83c0.093 0.193 0.223 0.373 0.39 0.54v0l0.48 0.49c-0.293 0.453-0.44 0.907-0.44 1.36v0c0 0.36 0.083 0.71 0.25 1.05 0.16 0.347 0.34 0.667 0.54 0.96zM108.25-8.79h0.25c0 0.327-0.09 0.597-0.27 0.81-0.18 0.207-0.393 0.393-0.64 0.56-0.24 0.16-0.483 0.307-0.73 0.44-0.247 0.127-0.467 0.29-0.66 0.49v0c-0.127 0.127-0.217 0.28-0.27 0.46-0.047 0.18-0.137 0.303-0.27 0.37v0c-0.193 0.16-0.403 0.257-0.63 0.29-0.227 0.033-0.463 0.073-0.71 0.12-0.24 0.047-0.477 0.113-0.71 0.2-0.227 0.08-0.42 0.233-0.58 0.46v0c-1.533 0.16-3.04 0.37-4.52 0.63-1.48 0.267-3 0.4-4.56 0.4v0c-0.293 0-0.613 0.023-0.96 0.07-0.34 0.047-0.657 0.087-0.95 0.12v0c-0.68 0.067-1.357 0.117-2.03 0.15-0.667 0.033-1.34 0.05-2.02 0.05v0c-0.947 0-1.89-0.043-2.83-0.13-0.947-0.08-1.877-0.217-2.79-0.41v0c-0.227-0.167-0.487-0.297-0.78-0.39-0.293-0.1-0.593-0.197-0.9-0.29-0.313-0.1-0.6-0.217-0.86-0.35-0.26-0.127-0.453-0.32-0.58-0.58v0c-0.487-0.033-0.92-0.133-1.3-0.3-0.373-0.16-0.713-0.347-1.02-0.56-0.313-0.207-0.63-0.427-0.95-0.66-0.327-0.227-0.703-0.42-1.13-0.58v0c-0.32-0.46-0.653-0.907-1-1.34-0.34-0.44-0.753-0.807-1.24-1.1v0c-0.1-0.62-0.257-1.24-0.47-1.86-0.207-0.62-0.417-1.23-0.63-1.83-0.213-0.6-0.393-1.21-0.54-1.83-0.147-0.62-0.22-1.257-0.22-1.91v0c0-0.453 0.067-1.007 0.2-1.66 0.127-0.647 0.297-1.303 0.51-1.97 0.213-0.667 0.467-1.293 0.76-1.88 0.293-0.587 0.587-1.06 0.88-1.42v0c0.093-0.1 0.207-0.18 0.34-0.24 0.127-0.067 0.24-0.167 0.34-0.3v0c0.293-0.32 0.603-0.587 0.93-0.8 0.327-0.213 0.667-0.467 1.02-0.76v0c0.133-0.127 0.24-0.273 0.32-0.44 0.08-0.16 0.203-0.307 0.37-0.44v0c0.093-0.06 0.23-0.077 0.41-0.05 0.18 0.033 0.333 0.003 0.46-0.09v0c0.133-0.1 0.2-0.217 0.2-0.35 0-0.127 0.05-0.24 0.15-0.34v0c0.033-0.033 0.13-0.04 0.29-0.02 0.16 0.013 0.257 0.02 0.29 0.02v0c0.227 0 0.487-0.153 0.78-0.46 0.293-0.313 0.54-0.517 0.74-0.61v0c0.227-0.133 0.453-0.223 0.68-0.27 0.227-0.047 0.47-0.137 0.73-0.27v0c0.36-0.193 0.71-0.347 1.05-0.46 0.34-0.113 0.69-0.253 1.05-0.42v0c0.193-0.067 0.373-0.18 0.54-0.34 0.16-0.16 0.323-0.273 0.49-0.34v0c0.293-0.1 0.61-0.173 0.95-0.22 0.34-0.047 0.667-0.097 0.98-0.15 0.307-0.047 0.613-0.11 0.92-0.19 0.313-0.08 0.6-0.237 0.86-0.47v0h0.39c0.587 0 1.157-0.08 1.71-0.24 0.553-0.16 1.123-0.24 1.71-0.24v0c0.16 0 0.403 0.03 0.73 0.09v0c0.26-0.16 0.553-0.24 0.88-0.24v0c0.553 0 1.107 0.137 1.66 0.41 0.553 0.28 1.123 0.42 1.71 0.42v0h0.29c0.133 0 0.263-0.017 0.39-0.05v0c0.36 0.36 0.79 0.557 1.29 0.59 0.507 0.027 0.94 0.173 1.3 0.44v0c0.227 0.193 0.413 0.42 0.56 0.68 0.147 0.26 0.27 0.537 0.37 0.83v0l0.29 0.88c0.1 0.293 0.23 0.553 0.39 0.78v0c-0.16 1.173-0.64 2.11-1.44 2.81-0.8 0.7-1.8 1.05-3 1.05v0c-0.46 0-0.843-0.057-1.15-0.17-0.307-0.12-0.583-0.243-0.83-0.37-0.247-0.133-0.5-0.263-0.76-0.39-0.26-0.133-0.553-0.23-0.88-0.29v0c0.36-0.653 0.59-1.353 0.69-2.1v0c-0.36-0.167-0.72-0.283-1.08-0.35-0.353-0.06-0.693-0.173-1.02-0.34v0c-0.88 0.227-1.737 0.383-2.57 0.47-0.827 0.08-1.6 0.43-2.32 1.05v0c-0.16-0.033-0.33-0.067-0.51-0.1-0.18-0.033-0.35-0.05-0.51-0.05v0c-0.193 0-0.583 0.137-1.17 0.41-0.587 0.28-1.213 0.6-1.88 0.96-0.667 0.353-1.303 0.71-1.91 1.07-0.6 0.36-1.013 0.603-1.24 0.73v0c-0.26 0.167-0.49 0.363-0.69 0.59-0.193 0.227-0.387 0.463-0.58 0.71-0.193 0.24-0.39 0.467-0.59 0.68-0.193 0.213-0.437 0.37-0.73 0.47v0c-0.067 0.353-0.18 0.66-0.34 0.92-0.167 0.26-0.347 0.537-0.54 0.83v0c-0.033 0.587-0.09 1.173-0.17 1.76-0.08 0.587-0.12 1.173-0.12 1.76v0 0.63c0 0.2 0.033 0.38 0.1 0.54v0c0.32 0.427 0.587 0.9 0.8 1.42 0.213 0.52 0.58 0.877 1.1 1.07v0c0.033 0.133 0.027 0.213-0.02 0.24-0.053 0.033-0.097 0.117-0.13 0.25v0c0.2 0.36 0.453 0.643 0.76 0.85 0.307 0.213 0.623 0.427 0.95 0.64 0.327 0.213 0.637 0.433 0.93 0.66 0.293 0.227 0.52 0.52 0.68 0.88v0c0.493 0 0.96 0.08 1.4 0.24 0.433 0.16 0.857 0.34 1.27 0.54 0.407 0.193 0.797 0.37 1.17 0.53 0.373 0.167 0.753 0.25 1.14 0.25v0c0.36 0 0.687-0.05 0.98-0.15v0c0.847 0.26 1.7 0.447 2.56 0.56 0.867 0.113 1.74 0.17 2.62 0.17v0c1.073 0 2.147-0.063 3.22-0.19 1.073-0.133 2.147-0.247 3.22-0.34v0c0.393-0.067 0.77-0.1 1.13-0.1 0.353 0 0.71-0.033 1.07-0.1v0c0.453-0.067 0.883-0.277 1.29-0.63 0.407-0.36 0.807-0.62 1.2-0.78v0c0.36 0.227 0.783 0.34 1.27 0.34v0c0.553 0 1.09-0.09 1.61-0.27 0.52-0.18 1.057-0.27 1.61-0.27zM134.72-12.55v0c0 0.36-0.13 0.63-0.39 0.81-0.26 0.18-0.39 0.413-0.39 0.7v0c0 0.133 0.063 0.297 0.19 0.49v0c-0.453 0-0.763 0.147-0.93 0.44-0.16 0.293-0.323 0.62-0.49 0.98v0h-0.63c-0.16 0-0.29 0.033-0.39 0.1-0.1 0.06-0.19 0.15-0.27 0.27-0.08 0.113-0.187 0.283-0.32 0.51v0c-0.613 0.127-1.207 0.33-1.78 0.61-0.567 0.273-1.12 0.567-1.66 0.88-0.533 0.307-1.077 0.617-1.63 0.93-0.553 0.307-1.123 0.557-1.71 0.75v0c-0.293 0.487-0.717 0.877-1.27 1.17v0h-0.15c-0.16 0.033-0.297 0.01-0.41-0.07-0.12-0.08-0.26-0.12-0.42-0.12v0c-0.1 0-0.163 0.017-0.19 0.05v0c-0.98 0.647-2.073 0.97-3.28 0.97v0c-0.32 0-0.627-0.023-0.92-0.07-0.293-0.047-0.603-0.07-0.93-0.07v0c-0.1 0-0.167 0.03-0.2 0.09v0l-0.09 0.2c-0.033 0.067-0.077 0.133-0.13 0.2-0.047 0.06-0.167 0.09-0.36 0.09v0c-0.36 0-0.72-0.047-1.08-0.14-0.353-0.1-0.727-0.117-1.12-0.05v0c-0.747-0.427-1.333-0.833-1.76-1.22-0.42-0.393-0.81-0.98-1.17-1.76v0c-0.16-0.36-0.38-0.703-0.66-1.03-0.273-0.32-0.477-0.677-0.61-1.07v0c-0.033-0.133-0.083-0.37-0.15-0.71-0.06-0.34-0.123-0.707-0.19-1.1-0.067-0.387-0.123-0.76-0.17-1.12-0.053-0.36-0.08-0.603-0.08-0.73v0c0-0.393 0.027-0.777 0.08-1.15 0.047-0.373 0.103-0.757 0.17-1.15v0c0.193-1.233 0.33-2.477 0.41-3.73 0.087-1.253 0.357-2.467 0.81-3.64v0c-0.067-0.36-0.1-0.703-0.1-1.03v0-1.07c0-0.62-0.08-1.14-0.24-1.56v0c0.26-0.427 0.39-0.9 0.39-1.42v0c0-0.587-0.243-0.927-0.73-1.02v0-0.15c0-0.687-0.23-1.223-0.69-1.61v0c0-1.14 0.287-1.997 0.86-2.57 0.567-0.567 1.323-1.06 2.27-1.48v0c0.127-0.2 0.173-0.363 0.14-0.49v0c0.233 0.067 0.447 0.13 0.64 0.19 0.193 0.067 0.387 0.1 0.58 0.1v0c0.327 0 0.62-0.05 0.88-0.15v0c0.1 0.393 0.353 0.63 0.76 0.71 0.407 0.08 0.74 0.187 1 0.32v0 0.63c0 1.013 0.243 1.973 0.73 2.88v0c-0.127 0.267-0.207 0.543-0.24 0.83-0.033 0.293-0.05 0.573-0.05 0.84v0c0 0.387 0.017 0.777 0.05 1.17 0.033 0.387 0.05 0.76 0.05 1.12v0c0 0.393-0.04 0.783-0.12 1.17-0.087 0.393-0.277 0.737-0.57 1.03v0c-0.027 0.42-0.05 0.9-0.07 1.44-0.013 0.533-0.047 1.077-0.1 1.63-0.047 0.553-0.133 1.09-0.26 1.61-0.133 0.527-0.33 0.95-0.59 1.27v0c-0.033 0.493-0.057 0.99-0.07 1.49-0.02 0.507-0.03 0.987-0.03 1.44v0c0 0.72 0.04 1.567 0.12 2.54 0.087 0.98 0.307 1.793 0.66 2.44v0c0.167 0.267 0.483 0.463 0.95 0.59 0.473 0.133 0.857 0.2 1.15 0.2v0c0.36 0 0.727-0.06 1.1-0.18 0.373-0.113 0.643-0.317 0.81-0.61v0c0.193 0.033 0.323 0.133 0.39 0.3 0.06 0.16 0.173 0.29 0.34 0.39v0c1.853-0.78 3.71-1.53 5.57-2.25 1.853-0.713 3.673-1.543 5.46-2.49v0c0.26 0.133 0.537 0.2 0.83 0.2v0c0.327 0 0.653-0.033 0.98-0.1 0.327-0.067 0.653-0.1 0.98-0.1v0h0.34c0.067 0.193 0.1 0.34 0.1 0.44zM165.28-31.05v0 0.19c-0.227 0.067-0.34 0.23-0.34 0.49v0c-0.36 0.16-0.733 0.283-1.12 0.37-0.393 0.08-0.767 0.2-1.12 0.36v0c-0.36-0.033-0.727-0.057-1.1-0.07-0.373-0.02-0.74-0.03-1.1-0.03v0c-0.98 0-1.957 0.033-2.93 0.1-0.98 0.067-1.957 0.067-2.93 0v0c-0.453 0.26-0.95 0.463-1.49 0.61-0.54 0.147-1.053 0.22-1.54 0.22v0c-0.387 0-0.727-0.05-1.02-0.15v0c-0.787 0.393-1.643 0.72-2.57 0.98-0.927 0.26-1.863 0.513-2.81 0.76-0.94 0.24-1.843 0.517-2.71 0.83-0.86 0.307-1.617 0.737-2.27 1.29v0c-0.06 0.46-0.107 0.91-0.14 1.35-0.033 0.433-0.05 0.863-0.05 1.29v0c0 0.453 0.023 0.877 0.07 1.27 0.053 0.387 0.16 0.777 0.32 1.17v0c0.16 0.067 0.347 0.117 0.56 0.15 0.213 0.033 0.4 0.05 0.56 0.05v0c0.167 0 0.33-0.027 0.49-0.08 0.167-0.047 0.28-0.15 0.34-0.31v0c0.493-0.067 0.983-0.093 1.47-0.08 0.487 0.02 0.973 0.03 1.46 0.03v0c0.487 0 0.967-0.017 1.44-0.05 0.473-0.033 0.937-0.117 1.39-0.25v0c0.527-0.127 1.04-0.207 1.54-0.24 0.507-0.033 1.003-0.067 1.49-0.1 0.487-0.033 0.993-0.09 1.52-0.17 0.52-0.08 1.057-0.25 1.61-0.51v0c0.42 0.16 0.85 0.24 1.29 0.24 0.44 0 0.87 0.033 1.29 0.1v0c0.233 0.16 0.423 0.34 0.57 0.54 0.147 0.193 0.22 0.42 0.22 0.68v0c0 0.453-0.163 0.91-0.49 1.37-0.327 0.453-0.587 0.877-0.78 1.27v0h-0.54c-0.78 0-1.537 0.103-2.27 0.31-0.733 0.213-1.467 0.46-2.2 0.74-0.733 0.273-1.467 0.517-2.2 0.73-0.727 0.213-1.483 0.32-2.27 0.32v0c-0.127 0-0.2 0.073-0.22 0.22-0.013 0.147-0.053 0.25-0.12 0.31v0c-0.16-0.027-0.403-0.04-0.73-0.04v0c-0.747 0-1.463 0.08-2.15 0.24-0.68 0.16-1.38 0.24-2.1 0.24v0c-0.193 0-0.387-0.007-0.58-0.02-0.2-0.02-0.397-0.043-0.59-0.07v0c-0.16 0.26-0.373 0.43-0.64 0.51-0.26 0.08-0.503 0.217-0.73 0.41v0c-0.093 0.293-0.15 0.653-0.17 1.08-0.013 0.42-0.03 0.85-0.05 1.29-0.013 0.44-0.053 0.857-0.12 1.25-0.067 0.387-0.197 0.693-0.39 0.92v0c0.033 0.167 0.163 0.227 0.39 0.18 0.227-0.053 0.34 0.05 0.34 0.31v0c0 0.293-0.033 0.603-0.1 0.93-0.06 0.327-0.09 0.653-0.09 0.98v0c0 0.613 0.073 1.287 0.22 2.02 0.147 0.733 0.373 1.41 0.68 2.03 0.307 0.62 0.723 1.133 1.25 1.54 0.52 0.407 1.17 0.61 1.95 0.61v0c0.52 0 1.007-0.097 1.46-0.29 0.46-0.2 0.837-0.527 1.13-0.98v0l0.24-0.05c0.133 0 0.257 0.017 0.37 0.05 0.113 0.033 0.233 0.05 0.36 0.05v0c0.2 0 0.453-0.123 0.76-0.37 0.307-0.24 0.65-0.523 1.03-0.85 0.373-0.327 0.753-0.647 1.14-0.96 0.393-0.307 0.77-0.523 1.13-0.65v0c0.227-0.46 0.447-0.917 0.66-1.37 0.207-0.46 0.523-0.82 0.95-1.08v0-1.41c0.327-0.36 0.677-0.687 1.05-0.98 0.373-0.293 0.657-0.667 0.85-1.12v0c0.167 0.067 0.323 0.113 0.47 0.14 0.147 0.033 0.3 0.05 0.46 0.05v0c0.16 0 0.33-0.017 0.51-0.05 0.18-0.027 0.35-0.073 0.51-0.14v0c0.267 0.36 0.473 0.757 0.62 1.19 0.14 0.44 0.327 0.857 0.56 1.25v0c-0.293 0.587-0.637 1.287-1.03 2.1-0.387 0.813-0.81 1.627-1.27 2.44-0.453 0.813-0.933 1.587-1.44 2.32-0.507 0.733-1.003 1.293-1.49 1.68v0c-0.093 0.1-0.303 0.217-0.63 0.35v0c-0.36 0.26-0.687 0.51-0.98 0.75-0.293 0.247-0.57 0.533-0.83 0.86v0c-0.947 0.293-1.85 0.683-2.71 1.17-0.86 0.487-1.713 0.96-2.56 1.42v0c-0.393-0.1-0.817-0.15-1.27-0.15v0c-0.393 0-0.783 0.023-1.17 0.07-0.393 0.053-0.817 0.08-1.27 0.08v0c-0.133-0.167-0.323-0.273-0.57-0.32-0.24-0.047-0.327-0.217-0.26-0.51v0c-1.107-0.067-2.003-0.37-2.69-0.91-0.68-0.533-1.257-1.193-1.73-1.98-0.473-0.78-0.857-1.623-1.15-2.53-0.293-0.913-0.603-1.793-0.93-2.64v0-0.15c0-0.16 0.067-0.257 0.2-0.29 0.127-0.033 0.19-0.13 0.19-0.29v0c0-0.067-0.017-0.117-0.05-0.15v0c-0.093-0.36-0.173-0.67-0.24-0.93-0.067-0.26-0.1-0.57-0.1-0.93v0c0-0.52 0.033-1.03 0.1-1.53 0.067-0.507 0.1-1.02 0.1-1.54v0c0-0.52-0.067-0.977-0.2-1.37v0c0.133-0.16 0.24-0.38 0.32-0.66 0.08-0.273 0.137-0.557 0.17-0.85 0.033-0.293 0.057-0.587 0.07-0.88 0.02-0.293 0.063-0.553 0.13-0.78v0c-0.133-0.36-0.25-0.677-0.35-0.95-0.093-0.28-0.14-0.617-0.14-1.01v0-0.34c0.327-0.553 0.603-1.123 0.83-1.71 0.227-0.587 0.47-1.187 0.73-1.8v0-0.15c0-0.947-0.033-1.89-0.1-2.83-0.067-0.947-0.1-1.89-0.1-2.83v0-0.93c0-0.327 0.017-0.637 0.05-0.93v0c0.26-0.127 0.457-0.307 0.59-0.54 0.127-0.227 0.323-0.403 0.59-0.53v0h1.61l0.29-0.49c0.1-0.167 0.163-0.347 0.19-0.54v0c0.36-0.1 0.71-0.237 1.05-0.41 0.347-0.18 0.667-0.37 0.96-0.57v0c0.453-0.26 0.867-0.493 1.24-0.7 0.373-0.213 0.747-0.393 1.12-0.54 0.38-0.147 0.78-0.27 1.2-0.37 0.427-0.093 0.917-0.173 1.47-0.24v0c0.26 0 0.43-0.05 0.51-0.15 0.08-0.093 0.2-0.207 0.36-0.34v0c0.393 0.067 0.787 0.123 1.18 0.17 0.387 0.053 0.777 0.08 1.17 0.08v0c0.78 0 1.513-0.147 2.2-0.44v0c0.973 0 1.94-0.017 2.9-0.05 0.96-0.033 1.93-0.05 2.91-0.05v0c0.847 0 1.693 0.033 2.54 0.1 0.847 0.06 1.677 0.173 2.49 0.34v0c0.293-0.1 0.617-0.15 0.97-0.15v0c0.393 0 0.793 0.04 1.2 0.12 0.407 0.087 0.803 0.097 1.19 0.03v0c0.033 0.353 0.123 0.653 0.27 0.9 0.147 0.247 0.22 0.533 0.22 0.86z" fill="#ffffff" fill-rule="nonzero" stroke="none" stroke-width="1" stroke-linecap="butt" stroke-linejoin="miter" stroke-miterlimit="10" stroke-dasharray="" stroke-dashoffset="0" font-family="none" font-weight="none" font-size="none" text-anchor="none" style="mix-blend-mode: normal" data-fill-palette-color="quaternary" opacity="1"></path><path transform="translate(0,61.84)" d="M47.66-46.53v0c-0.26 0.16-0.537 0.257-0.83 0.29-0.293 0.033-0.597 0.073-0.91 0.12-0.307 0.053-0.59 0.127-0.85 0.22-0.26 0.1-0.457 0.28-0.59 0.54v0c-0.327-0.327-0.683-0.603-1.07-0.83-0.393-0.227-0.783-0.47-1.17-0.73v0c-0.327 0.093-0.653 0.223-0.98 0.39-0.327 0.16-0.653 0.24-0.98 0.24v0c-0.227 0-0.453-0.08-0.68-0.24v0c-0.26 0.193-0.56 0.347-0.9 0.46-0.347 0.113-0.707 0.22-1.08 0.32-0.373 0.093-0.713 0.223-1.02 0.39-0.313 0.16-0.533 0.403-0.66 0.73v0c-0.067-0.16-0.223-0.21-0.47-0.15-0.24 0.067-0.377-0.013-0.41-0.24v0c-1.04 0.36-2.1 0.67-3.18 0.93-1.073 0.26-2.147 0.537-3.22 0.83-1.073 0.293-2.13 0.617-3.17 0.97-1.04 0.36-2.05 0.8-3.03 1.32v0c-0.033 0.033-0.05 0.083-0.05 0.15v0c0 0.327 0.05 0.637 0.15 0.93 0.1 0.293 0.18 0.57 0.24 0.83v0c-0.587 1.987-0.977 4.003-1.17 6.05-0.193 2.053-0.453 4.073-0.78 6.06v0 0.19c0 0.167 0.063 0.29 0.19 0.37 0.133 0.08 0.2 0.217 0.2 0.41v0l-0.05 0.1c-0.16 0.1-0.273 0.24-0.34 0.42-0.067 0.173-0.1 0.36-0.1 0.56v0c0 0.127 0.033 0.32 0.1 0.58v0c-0.553 1.86-0.92 3.75-1.1 5.67-0.18 1.92-0.4 3.84-0.66 5.76v0l-0.44 3.22c-0.067 0.193-0.123 0.38-0.17 0.56-0.047 0.18-0.07 0.37-0.07 0.57v0c0 1.04 0.073 2.057 0.22 3.05 0.147 0.993 0.187 2.01 0.12 3.05v0c0.293 0.453 0.44 0.893 0.44 1.32v0c0 0.16-0.007 0.323-0.02 0.49-0.02 0.16-0.047 0.32-0.08 0.48v0c0.427 0.427 0.923 0.73 1.49 0.91 0.573 0.18 1.087 0.463 1.54 0.85v0 0.2c0 0.32-0.05 0.637-0.15 0.95-0.093 0.307-0.173 0.623-0.24 0.95v0c-0.067 0.26-0.14 0.633-0.22 1.12-0.08 0.493-0.187 0.82-0.32 0.98v0c-0.16 0.227-0.397 0.43-0.71 0.61-0.307 0.18-0.607 0.27-0.9 0.27v0c-0.1 0-0.237-0.05-0.41-0.15-0.18-0.093-0.32-0.173-0.42-0.24v0c-0.16 0-0.37 0.08-0.63 0.24-0.267 0.167-0.53 0.25-0.79 0.25v0c-0.127 0-0.24-0.01-0.34-0.03-0.093-0.013-0.207-0.053-0.34-0.12v0c-0.127-0.327-0.313-0.61-0.56-0.85-0.247-0.247-0.533-0.483-0.86-0.71v0c0.033-0.46-0.047-0.803-0.24-1.03-0.193-0.227-0.39-0.52-0.59-0.88v0c-0.06-0.453-0.117-0.973-0.17-1.56-0.047-0.587-0.297-1.01-0.75-1.27v0c0.16-0.227 0.24-0.537 0.24-0.93v0c0-0.16-0.023-0.337-0.07-0.53-0.053-0.2-0.16-0.347-0.32-0.44v0-0.1c-0.033-0.16 0.023-0.283 0.17-0.37 0.147-0.08 0.22-0.2 0.22-0.36v0-0.2c-0.227-1.04-0.34-2.13-0.34-3.27v0c0-1.073 0.033-2.14 0.1-3.2 0.06-1.053 0.06-2.12 0-3.2v0c0.193-0.16 0.347-0.42 0.46-0.78 0.113-0.353 0.203-0.743 0.27-1.17 0.067-0.42 0.107-0.833 0.12-1.24 0.02-0.407 0.043-0.743 0.07-1.01v0c0.167-1.853 0.43-3.683 0.79-5.49 0.353-1.807 0.563-3.653 0.63-5.54v0c0.16-0.26 0.257-0.603 0.29-1.03 0.033-0.42 0.05-0.867 0.05-1.34 0-0.473 0.033-0.937 0.1-1.39 0.067-0.453 0.197-0.843 0.39-1.17v0c0-0.913 0.08-1.833 0.24-2.76 0.167-0.927 0.25-1.863 0.25-2.81v0c0-0.453-0.05-0.923-0.15-1.41v0c-0.327-0.133-0.62-0.2-0.88-0.2v0c-0.353 0-0.72 0.073-1.1 0.22-0.373 0.147-0.64 0.367-0.8 0.66v0c-0.72 0.033-1.42 0.147-2.1 0.34-0.687 0.193-1.37 0.29-2.05 0.29v0h-0.49c-0.127 0-0.273-0.013-0.44-0.04v0c-0.227 0.093-0.463 0.173-0.71 0.24-0.24 0.067-0.343 0.263-0.31 0.59v0c-1.013 0.093-2 0.303-2.96 0.63-0.96 0.327-1.913 0.677-2.86 1.05-0.94 0.373-1.89 0.723-2.85 1.05-0.96 0.327-1.947 0.537-2.96 0.63v0c-0.353 0.167-0.58 0.51-0.68 1.03v0c-0.713-0.067-1.317-0.247-1.81-0.54-0.487-0.293-1.053-0.57-1.7-0.83v0c-0.2-0.68-0.3-1.33-0.3-1.95v0c0-0.813 0.163-1.593 0.49-2.34 0.327-0.753 0.847-1.307 1.56-1.66v0c0.167 0.027 0.313 0.05 0.44 0.07 0.133 0.013 0.28 0.02 0.44 0.02v0c0.52 0 1.04-0.097 1.56-0.29 0.527-0.193 1.067-0.29 1.62-0.29v0c0.16 0 0.337 0.047 0.53 0.14v0c0.227-0.127 0.513-0.23 0.86-0.31 0.34-0.087 0.663-0.17 0.97-0.25 0.313-0.08 0.6-0.2 0.86-0.36 0.26-0.167 0.423-0.397 0.49-0.69v0c0.16 0.133 0.337 0.217 0.53 0.25 0.2 0.033 0.397 0.05 0.59 0.05v0c0.42 0 0.86-0.083 1.32-0.25 0.453-0.16 0.81-0.42 1.07-0.78v0c0.227 0.26 0.553 0.39 0.98 0.39v0c0.453 0 0.9-0.123 1.34-0.37 0.44-0.24 0.873-0.36 1.3-0.36v0c0.32 0 0.563 0.113 0.73 0.34v0c0.36-0.293 0.783-0.52 1.27-0.68 0.487-0.167 0.983-0.313 1.49-0.44 0.5-0.133 0.97-0.28 1.41-0.44 0.44-0.167 0.79-0.397 1.05-0.69v0c0.167 0.033 0.427 0.05 0.78 0.05v0c0.553 0 1.083-0.073 1.59-0.22 0.507-0.147 1.02-0.283 1.54-0.41v0l1.02-0.1c0.26-0.033 0.497-0.113 0.71-0.24 0.213-0.133 0.433-0.25 0.66-0.35 0.227-0.093 0.463-0.173 0.71-0.24 0.247-0.067 0.547-0.083 0.9-0.05v0c0.78-0.42 1.61-0.747 2.49-0.98 0.88-0.227 1.777-0.43 2.69-0.61 0.913-0.173 1.807-0.383 2.68-0.63 0.88-0.247 1.71-0.613 2.49-1.1v0h0.15c0.653 0 1.297-0.113 1.93-0.34 0.633-0.227 1.227-0.537 1.78-0.93v0c0.1 0.033 0.197 0.05 0.29 0.05v0h0.35c0.907 0 1.793-0.13 2.66-0.39 0.86-0.26 1.763-0.39 2.71-0.39v0c0.553 0 0.993 0.073 1.32 0.22 0.32 0.147 0.61 0.327 0.87 0.54 0.267 0.207 0.543 0.41 0.83 0.61 0.293 0.193 0.67 0.34 1.13 0.44v0c0.293 0.553 0.44 1.147 0.44 1.78 0 0.633 0.017 1.277 0.05 1.93zM63.67-31.05v0 0.19c-0.227 0.067-0.34 0.23-0.34 0.49v0c-0.36 0.16-0.733 0.283-1.12 0.37-0.393 0.08-0.77 0.2-1.13 0.36v0c-0.353-0.033-0.717-0.057-1.09-0.07-0.38-0.02-0.747-0.03-1.1-0.03v0c-0.98 0-1.957 0.033-2.93 0.1-0.98 0.067-1.957 0.067-2.93 0v0c-0.46 0.26-0.957 0.463-1.49 0.61-0.54 0.147-1.053 0.22-1.54 0.22v0c-0.393 0-0.737-0.05-1.03-0.15v0c-0.78 0.393-1.633 0.72-2.56 0.98-0.927 0.26-1.863 0.513-2.81 0.76-0.94 0.24-1.843 0.517-2.71 0.83-0.86 0.307-1.617 0.737-2.27 1.29v0c-0.06 0.46-0.107 0.91-0.14 1.35-0.033 0.433-0.05 0.863-0.05 1.29v0c0 0.453 0.023 0.877 0.07 1.27 0.047 0.387 0.153 0.777 0.32 1.17v0c0.16 0.067 0.347 0.117 0.56 0.15 0.213 0.033 0.4 0.05 0.56 0.05v0c0.167 0 0.33-0.027 0.49-0.08 0.16-0.047 0.273-0.15 0.34-0.31v0c0.487-0.067 0.977-0.093 1.47-0.08 0.487 0.02 0.973 0.03 1.46 0.03v0c0.487 0 0.967-0.017 1.44-0.05 0.473-0.033 0.937-0.117 1.39-0.25v0c0.52-0.127 1.033-0.207 1.54-0.24 0.507-0.033 1.003-0.067 1.49-0.1 0.487-0.033 0.99-0.09 1.51-0.17 0.527-0.08 1.067-0.25 1.62-0.51v0c0.42 0.16 0.85 0.24 1.29 0.24 0.44 0 0.87 0.033 1.29 0.1v0c0.233 0.16 0.42 0.34 0.56 0.54 0.147 0.193 0.22 0.42 0.22 0.68v0c0 0.453-0.16 0.91-0.48 1.37-0.327 0.453-0.587 0.877-0.78 1.27v0h-0.54c-0.78 0-1.537 0.103-2.27 0.31-0.733 0.213-1.467 0.46-2.2 0.74-0.733 0.273-1.467 0.517-2.2 0.73-0.733 0.213-1.49 0.32-2.27 0.32v0c-0.127 0-0.2 0.073-0.22 0.22-0.013 0.147-0.053 0.25-0.12 0.31v0c-0.16-0.027-0.403-0.04-0.73-0.04v0c-0.747 0-1.463 0.08-2.15 0.24-0.687 0.16-1.387 0.24-2.1 0.24v0c-0.193 0-0.39-0.007-0.59-0.02-0.193-0.02-0.387-0.043-0.58-0.07v0c-0.167 0.26-0.38 0.43-0.64 0.51-0.26 0.08-0.503 0.217-0.73 0.41v0c-0.1 0.293-0.157 0.653-0.17 1.08-0.013 0.42-0.03 0.85-0.05 1.29-0.013 0.44-0.053 0.857-0.12 1.25-0.067 0.387-0.197 0.693-0.39 0.92v0c0.033 0.167 0.163 0.227 0.39 0.18 0.227-0.053 0.34 0.05 0.34 0.31v0c0 0.293-0.033 0.603-0.1 0.93-0.06 0.327-0.09 0.653-0.09 0.98v0c0 0.613 0.073 1.287 0.22 2.02 0.147 0.733 0.373 1.41 0.68 2.03 0.307 0.62 0.72 1.133 1.24 1.54 0.527 0.407 1.18 0.61 1.96 0.61v0c0.52 0 1.007-0.097 1.46-0.29 0.46-0.2 0.837-0.527 1.13-0.98v0l0.24-0.05c0.127 0 0.25 0.017 0.37 0.05 0.113 0.033 0.233 0.05 0.36 0.05v0c0.193 0 0.447-0.123 0.76-0.37 0.307-0.24 0.647-0.523 1.02-0.85 0.38-0.327 0.763-0.647 1.15-0.96 0.393-0.307 0.767-0.523 1.12-0.65v0c0.233-0.46 0.453-0.917 0.66-1.37 0.213-0.46 0.533-0.82 0.96-1.08v0-1.41c0.32-0.36 0.67-0.687 1.05-0.98 0.373-0.293 0.657-0.667 0.85-1.12v0c0.16 0.067 0.313 0.113 0.46 0.14 0.147 0.033 0.303 0.05 0.47 0.05v0c0.16 0 0.33-0.017 0.51-0.05 0.18-0.027 0.35-0.073 0.51-0.14v0c0.26 0.36 0.463 0.757 0.61 1.19 0.147 0.44 0.337 0.857 0.57 1.25v0c-0.293 0.587-0.637 1.287-1.03 2.1-0.393 0.813-0.817 1.627-1.27 2.44-0.453 0.813-0.933 1.587-1.44 2.32-0.507 0.733-1.003 1.293-1.49 1.68v0c-0.1 0.1-0.31 0.217-0.63 0.35v0c-0.36 0.26-0.687 0.51-0.98 0.75-0.293 0.247-0.57 0.533-0.83 0.86v0c-0.947 0.293-1.85 0.683-2.71 1.17-0.86 0.487-1.713 0.96-2.56 1.42v0c-0.393-0.1-0.817-0.15-1.27-0.15v0c-0.393 0-0.787 0.023-1.18 0.07-0.387 0.053-0.81 0.08-1.27 0.08v0c-0.127-0.167-0.313-0.273-0.56-0.32-0.24-0.047-0.33-0.217-0.27-0.51v0c-1.107-0.067-2-0.37-2.68-0.91-0.687-0.533-1.263-1.193-1.73-1.98-0.473-0.78-0.857-1.623-1.15-2.53-0.293-0.913-0.603-1.793-0.93-2.64v0-0.15c0-0.16 0.067-0.257 0.2-0.29 0.127-0.033 0.19-0.13 0.19-0.29v0c0-0.067-0.017-0.117-0.05-0.15v0c-0.093-0.36-0.173-0.67-0.24-0.93-0.067-0.26-0.1-0.57-0.1-0.93v0c0-0.52 0.033-1.03 0.1-1.53 0.067-0.507 0.1-1.02 0.1-1.54v0c0-0.52-0.067-0.977-0.2-1.37v0c0.133-0.16 0.24-0.38 0.32-0.66 0.08-0.273 0.137-0.557 0.17-0.85 0.033-0.293 0.057-0.587 0.07-0.88 0.02-0.293 0.06-0.553 0.12-0.78v0c-0.127-0.36-0.24-0.677-0.34-0.95-0.093-0.28-0.14-0.617-0.14-1.01v0-0.34c0.32-0.553 0.597-1.123 0.83-1.71 0.227-0.587 0.47-1.187 0.73-1.8v0-0.15c0-0.947-0.033-1.89-0.1-2.83-0.067-0.947-0.1-1.89-0.1-2.83v0-0.93c0-0.327 0.017-0.637 0.05-0.93v0c0.26-0.127 0.457-0.307 0.59-0.54 0.127-0.227 0.32-0.403 0.58-0.53v0h1.62l0.29-0.49c0.093-0.167 0.157-0.347 0.19-0.54v0c0.36-0.1 0.71-0.237 1.05-0.41 0.347-0.18 0.667-0.37 0.96-0.57v0c0.453-0.26 0.867-0.493 1.24-0.7 0.373-0.213 0.747-0.393 1.12-0.54 0.38-0.147 0.78-0.27 1.2-0.37 0.42-0.093 0.907-0.173 1.46-0.24v0c0.267 0 0.44-0.05 0.52-0.15 0.08-0.093 0.2-0.207 0.36-0.34v0c0.393 0.067 0.787 0.123 1.18 0.17 0.387 0.053 0.777 0.08 1.17 0.08v0c0.78 0 1.51-0.147 2.19-0.44v0c0.98 0 1.95-0.017 2.91-0.05 0.96-0.033 1.93-0.05 2.91-0.05v0c0.84 0 1.683 0.033 2.53 0.1 0.847 0.06 1.677 0.173 2.49 0.34v0c0.293-0.1 0.62-0.15 0.98-0.15v0c0.393 0 0.793 0.04 1.2 0.12 0.407 0.087 0.803 0.097 1.19 0.03v0c0.033 0.353 0.123 0.653 0.27 0.9 0.147 0.247 0.22 0.533 0.22 0.86zM97.66-3.56v0c-0.1 0.453-0.303 0.817-0.61 1.09-0.313 0.28-0.68 0.5-1.1 0.66-0.427 0.167-0.86 0.273-1.3 0.32-0.44 0.047-0.837 0.07-1.19 0.07v0c-0.167 0-0.323-0.007-0.47-0.02-0.147-0.013-0.3-0.02-0.46-0.02v0c-0.16 0-0.24 0.08-0.24 0.24 0 0.16-0.083 0.273-0.25 0.34v0c-0.16-0.067-0.323-0.117-0.49-0.15-0.16-0.027-0.323-0.04-0.49-0.04v0c-0.227 0-0.443 0.013-0.65 0.04-0.213 0.033-0.42 0.05-0.62 0.05v0c-0.26 0-0.447-0.03-0.56-0.09-0.113-0.067-0.21-0.14-0.29-0.22-0.08-0.087-0.16-0.177-0.24-0.27-0.087-0.1-0.21-0.183-0.37-0.25v0c-0.227-0.093-0.413-0.11-0.56-0.05-0.147 0.067-0.367-0.03-0.66-0.29v0c-0.393-0.327-0.727-0.723-1-1.19-0.28-0.473-0.55-0.97-0.81-1.49-0.26-0.527-0.537-1.05-0.83-1.57-0.293-0.52-0.633-0.973-1.02-1.36v0h-0.39c-0.587 0-0.993 0.243-1.22 0.73v0c-0.167-0.1-0.33-0.223-0.49-0.37-0.167-0.147-0.347-0.267-0.54-0.36v0c-0.747 0.227-1.527 0.42-2.34 0.58-0.813 0.167-1.627 0.25-2.44 0.25v0h-0.69c-0.193 0-0.403-0.033-0.63-0.1v0c-0.327 0.127-0.62 0.28-0.88 0.46-0.26 0.18-0.553 0.27-0.88 0.27v0c-0.193 0-0.42-0.063-0.68-0.19v0c-0.2 0-0.29 0.08-0.27 0.24 0.013 0.16-0.093 0.24-0.32 0.24v0h-0.44c-0.453 0-0.9 0.017-1.34 0.05-0.44 0.033-0.89 0.05-1.35 0.05v0c-0.613 0-1.247-0.08-1.9-0.24v0c-0.16 0.093-0.34 0.14-0.54 0.14v0c-0.127 0.067-0.223 0.173-0.29 0.32-0.067 0.147-0.13 0.277-0.19 0.39-0.067 0.113-0.157 0.213-0.27 0.3-0.113 0.08-0.27 0.103-0.47 0.07v0c-0.067 0.387-0.23 0.697-0.49 0.93-0.26 0.227-0.39 0.567-0.39 1.02v0c-0.353 0.193-0.647 0.437-0.88 0.73-0.227 0.293-0.453 0.603-0.68 0.93-0.227 0.327-0.463 0.637-0.71 0.93-0.24 0.293-0.54 0.52-0.9 0.68v0c-0.16 0.2-0.21 0.51-0.15 0.93v0c-0.353 0.293-0.79 0.553-1.31 0.78-0.527 0.227-1.017 0.34-1.47 0.34v0c-0.947 0-1.597-0.503-1.95-1.51v0c0-0.327 0.023-0.677 0.07-1.05 0.047-0.373 0.12-0.73 0.22-1.07 0.1-0.347 0.247-0.657 0.44-0.93 0.193-0.28 0.47-0.483 0.83-0.61v0c0-0.293-0.097-0.497-0.29-0.61-0.2-0.113-0.283-0.317-0.25-0.61v0c0.88-0.427 1.647-0.98 2.3-1.66 0.647-0.687 1.24-1.413 1.78-2.18 0.54-0.76 1.087-1.533 1.64-2.32 0.553-0.78 1.17-1.477 1.85-2.09v0-1.03c0.98-1.04 1.617-2.213 1.91-3.52v0c0.353-0.06 0.587-0.22 0.7-0.48 0.113-0.26 0.17-0.57 0.17-0.93v0c0.167 0 0.273-0.073 0.32-0.22 0.047-0.147 0.187-0.187 0.42-0.12v0c0.293-0.787 0.617-1.503 0.97-2.15 0.36-0.653 0.72-1.313 1.08-1.98 0.353-0.667 0.67-1.357 0.95-2.07 0.273-0.72 0.477-1.52 0.61-2.4v0c0.453-0.033 0.707-0.253 0.76-0.66 0.047-0.407 0.103-0.773 0.17-1.1v0c0.487-0.453 0.853-0.99 1.1-1.61 0.24-0.613 0.46-1.257 0.66-1.93 0.193-0.667 0.41-1.333 0.65-2 0.247-0.667 0.597-1.26 1.05-1.78v0-0.15c0-0.16-0.063-0.263-0.19-0.31-0.133-0.053-0.2-0.16-0.2-0.32v0c0.033-0.033 0.05-0.067 0.05-0.1v0c0.393-0.16 0.687-0.427 0.88-0.8 0.193-0.38 0.487-0.65 0.88-0.81v0c0.687 0.553 1.29 0.887 1.81 1 0.52 0.113 1.203 0.203 2.05 0.27v0c0.42 0.453 0.657 1 0.71 1.64 0.047 0.633 0.15 1.26 0.31 1.88v0c0.26 1.04 0.547 2.057 0.86 3.05 0.307 0.993 0.543 2.01 0.71 3.05v0c0.093 0.62 0.27 1.207 0.53 1.76 0.26 0.553 0.44 1.123 0.54 1.71v0c0.067 0.453 0.067 0.963 0 1.53-0.067 0.573 0 1.07 0.2 1.49v0l0.34 0.78c0.16 0.36 0.297 0.737 0.41 1.13 0.113 0.387 0.22 0.777 0.32 1.17v0c0.26 0.973 0.497 2.023 0.71 3.15 0.207 1.12 0.54 2.137 1 3.05v0c0.16 0.327 0.413 0.553 0.76 0.68 0.34 0.133 0.72 0.223 1.14 0.27 0.427 0.053 0.843 0.07 1.25 0.05 0.407-0.013 0.757-0.02 1.05-0.02v0h0.49c0.193 0 0.387 0.03 0.58 0.09v0c0.133 0.267 0.2 0.497 0.2 0.69v0c0 0.387-0.13 0.697-0.39 0.93-0.26 0.227-0.39 0.487-0.39 0.78v0c0 0.16 0.063 0.337 0.19 0.53v0c-0.127-0.027-0.32-0.04-0.58-0.04v0c-0.753 0-1.487 0.13-2.2 0.39v0c0.26 0.553 0.61 1.017 1.05 1.39 0.44 0.373 0.903 0.723 1.39 1.05v0c0.327-0.26 0.667-0.39 1.02-0.39v0c0.393 0 0.76 0.09 1.1 0.27 0.347 0.173 0.713 0.26 1.1 0.26v0c0.293 0 0.507-0.047 0.64-0.14v0c0.26 0.293 0.47 0.593 0.63 0.9 0.167 0.307 0.38 0.593 0.64 0.86zM82.37-11.38v0c-0.06-0.553-0.163-0.95-0.31-1.19-0.147-0.247-0.27-0.55-0.37-0.91v0c-0.133-0.453-0.223-0.94-0.27-1.46-0.047-0.52-0.12-1.027-0.22-1.52v0c-0.227-1.107-0.48-2.213-0.76-3.32-0.273-1.107-0.623-2.18-1.05-3.22v0c0.133-0.193 0.2-0.373 0.2-0.54v0-0.14c-0.293-0.327-0.503-0.727-0.63-1.2-0.133-0.473-0.257-0.943-0.37-1.41-0.113-0.473-0.26-0.913-0.44-1.32-0.18-0.407-0.467-0.74-0.86-1v0c-0.093 0.193-0.14 0.42-0.14 0.68v0c0 0.227 0.023 0.44 0.07 0.64 0.047 0.193 0.07 0.403 0.07 0.63v0c-0.32 0.16-0.553 0.413-0.7 0.76-0.147 0.34-0.383 0.607-0.71 0.8v0c-0.26 1.04-0.633 2.027-1.12 2.96-0.493 0.927-1.007 1.847-1.54 2.76-0.54 0.907-1.053 1.823-1.54 2.75-0.487 0.933-0.877 1.903-1.17 2.91v0c-0.427 0.293-0.713 0.667-0.86 1.12-0.147 0.46-0.22 0.917-0.22 1.37v0c0.293 0.16 0.627 0.25 1 0.27 0.38 0.013 0.747 0.02 1.1 0.02 0.36 0 0.703 0.033 1.03 0.1 0.327 0.067 0.62 0.23 0.88 0.49v0c0.42-0.133 0.883-0.223 1.39-0.27 0.507-0.047 0.92-0.187 1.24-0.42v0c0.653 0.233 1.353 0.35 2.1 0.35v0c0.393 0 0.777-0.033 1.15-0.1 0.373-0.067 0.74-0.15 1.1-0.25v0c0.293 0.067 0.52 0.173 0.68 0.32 0.167 0.147 0.413 0.203 0.74 0.17v0c0.16-0.127 0.257-0.263 0.29-0.41 0.033-0.147 0.113-0.287 0.24-0.42zM144.24-6.15v0c-0.167 0.52-0.217 1.04-0.15 1.56v0c-0.093 0.133-0.207 0.213-0.34 0.24-0.133 0.033-0.263 0.077-0.39 0.13-0.133 0.047-0.24 0.11-0.32 0.19-0.08 0.08-0.087 0.237-0.02 0.47v0c-1.073 0.06-2.1 0.287-3.08 0.68-0.973 0.393-1.933 0.817-2.88 1.27v0c-0.487-0.167-0.91-0.363-1.27-0.59-0.36-0.227-0.817-0.373-1.37-0.44v0c-0.553-1.107-1.063-2.27-1.53-3.49-0.473-1.22-0.71-2.447-0.71-3.68v0c0-0.913 0.163-1.743 0.49-2.49v0c0-0.98 0.08-1.943 0.24-2.89 0.16-0.94 0.347-1.873 0.56-2.8 0.213-0.927 0.4-1.863 0.56-2.81 0.167-0.947 0.25-1.907 0.25-2.88v0-1.08c-0.067 0-0.15 0.073-0.25 0.22-0.093 0.147-0.183 0.31-0.27 0.49-0.08 0.18-0.153 0.35-0.22 0.51-0.06 0.167-0.107 0.267-0.14 0.3v0c-0.553 0.42-0.987 0.947-1.3 1.58-0.307 0.64-0.64 1.237-1 1.79v0c-0.453 0.68-0.933 1.347-1.44 2-0.5 0.653-1.127 1.157-1.88 1.51v0 0.1c0 0.16-0.047 0.273-0.14 0.34-0.1 0.067-0.117 0.23-0.05 0.49v0c-0.813 0.26-1.57 0.633-2.27 1.12-0.7 0.493-1.28 1.113-1.74 1.86v0c-0.647 0.16-1.257 0.38-1.83 0.66-0.567 0.273-1.143 0.573-1.73 0.9v0c-0.26 0.133-0.537 0.297-0.83 0.49-0.293 0.193-0.587 0.323-0.88 0.39v0c-0.26 0.1-0.61 0.167-1.05 0.2-0.44 0.027-0.897 0.057-1.37 0.09-0.467 0.033-0.93 0.05-1.39 0.05v0h-1.07c-0.167 0-0.38-0.08-0.64-0.24-0.26-0.167-0.543-0.347-0.85-0.54-0.313-0.193-0.63-0.38-0.95-0.56-0.327-0.18-0.637-0.303-0.93-0.37v0c-0.26-0.847-0.627-1.603-1.1-2.27-0.473-0.667-0.97-1.34-1.49-2.02v0c-0.16-0.787-0.38-1.603-0.66-2.45-0.273-0.84-0.753-1.537-1.44-2.09v0c0.167-0.233 0.25-0.497 0.25-0.79v0c0-0.353-0.083-0.693-0.25-1.02-0.16-0.327-0.24-0.687-0.24-1.08v0c0-0.26 0.017-0.453 0.05-0.58v0c-0.36 0.387-0.613 0.883-0.76 1.49-0.147 0.6-0.22 1.143-0.22 1.63v0c0 0.393 0.05 0.753 0.15 1.08v0c-0.327 0.453-0.53 1.023-0.61 1.71-0.087 0.68-0.13 1.28-0.13 1.8v0c0 0.653 0.05 1.29 0.15 1.91v0c-0.52 0.52-0.78 1.153-0.78 1.9v0c0 0.427 0.097 0.8 0.29 1.12v0c0 0.133-0.033 0.233-0.1 0.3-0.06 0.067-0.133 0.113-0.22 0.14-0.08 0.033-0.16 0.077-0.24 0.13-0.08 0.047-0.12 0.133-0.12 0.26v0c0 0.167 0.007 0.347 0.02 0.54 0.02 0.193 0.03 0.39 0.03 0.59v0c0 0.453-0.017 0.923-0.05 1.41-0.033 0.493-0.05 0.967-0.05 1.42v0c0 0.947 0.09 1.623 0.27 2.03 0.18 0.407 0.407 0.707 0.68 0.9 0.28 0.193 0.58 0.39 0.9 0.59 0.327 0.193 0.653 0.567 0.98 1.12v0c-0.1 0.293-0.27 0.53-0.51 0.71-0.247 0.18-0.477 0.357-0.69 0.53-0.207 0.18-0.393 0.383-0.56 0.61-0.16 0.233-0.223 0.56-0.19 0.98v0h-0.25c-0.42 0-0.827 0.067-1.22 0.2-0.387 0.127-0.793 0.19-1.22 0.19v0c-0.093 0-0.19-0.007-0.29-0.02-0.1-0.02-0.197-0.03-0.29-0.03v0l-0.49-0.29c-0.167-0.1-0.33-0.15-0.49-0.15v0c-0.16 0-0.37 0.033-0.63 0.1v0c-0.46-1.467-0.81-2.98-1.05-4.54-0.247-1.56-0.37-3.09-0.37-4.59v0c0-0.16 0.04-0.33 0.12-0.51 0.08-0.18 0.203-0.237 0.37-0.17v0-0.93c0-1.013 0.09-2 0.27-2.96 0.173-0.96 0.26-1.96 0.26-3v0c0-0.293-0.007-0.587-0.02-0.88-0.013-0.293-0.037-0.57-0.07-0.83v0c0.16-0.553 0.33-1.113 0.51-1.68 0.18-0.573 0.27-1.167 0.27-1.78v0c0-0.26-0.05-0.57-0.15-0.93v0c0.26-0.2 0.457-0.453 0.59-0.76 0.127-0.307 0.223-0.647 0.29-1.02 0.067-0.38 0.117-0.747 0.15-1.1 0.033-0.36 0.063-0.687 0.09-0.98v0c0.327-0.653 0.507-1.353 0.54-2.1 0.033-0.747 0.197-1.447 0.49-2.1v0c-0.033-0.127-0.05-0.353-0.05-0.68v0c0-0.653 0.107-1.313 0.32-1.98 0.213-0.667 0.643-1.18 1.29-1.54v0c0.587 0.227 1.27 0.34 2.05 0.34v0c0.753 0 1.47-0.113 2.15-0.34v0c0.193 0.067 0.373 0.14 0.54 0.22 0.16 0.08 0.33 0.163 0.51 0.25 0.18 0.08 0.367 0.143 0.56 0.19 0.2 0.047 0.43 0.057 0.69 0.03v0c0.327 0.94 0.61 1.9 0.85 2.88 0.247 0.973 0.433 1.967 0.56 2.98v0c0.067 0.42 0.093 0.873 0.08 1.36-0.02 0.487 0.003 0.943 0.07 1.37v0c0.033 0.26 0.113 0.497 0.24 0.71 0.133 0.207 0.263 0.443 0.39 0.71 0.133 0.26 0.24 0.55 0.32 0.87 0.08 0.327 0.103 0.737 0.07 1.23v0c0.36 0.84 0.76 1.643 1.2 2.41 0.44 0.767 0.92 1.523 1.44 2.27v0c0.293 0.1 0.553 0.223 0.78 0.37 0.227 0.147 0.373 0.383 0.44 0.71v0c0.293 0 0.553 0.047 0.78 0.14v0l0.83 0.25c1.24-0.393 2.39-0.917 3.45-1.57 1.053-0.647 2.167-1.2 3.34-1.66v0c1.433-1.393 2.67-2.947 3.71-4.66 1.04-1.707 2.083-3.407 3.13-5.1v0-1.08c0.193-0.093 0.363-0.213 0.51-0.36 0.147-0.147 0.333-0.253 0.56-0.32v0c0.033-0.387 0.123-0.77 0.27-1.15 0.147-0.373 0.31-0.73 0.49-1.07 0.18-0.34 0.333-0.683 0.46-1.03 0.133-0.34 0.2-0.703 0.2-1.09v0c0-0.233-0.017-0.43-0.05-0.59v0c0.487-0.487 1.073-0.73 1.76-0.73v0c0.647 0 1.303 0.153 1.97 0.46 0.667 0.307 1.293 0.593 1.88 0.86v0c0.36 0.78 0.63 1.6 0.81 2.46 0.18 0.867 0.3 1.753 0.36 2.66 0.067 0.913 0.1 1.827 0.1 2.74v0 3.46c-0.033 0.26-0.123 0.45-0.27 0.57-0.147 0.113-0.25 0.283-0.31 0.51v0 0.49c0 0.16-0.017 0.32-0.05 0.48v0c0 0.687-0.083 1.403-0.25 2.15v0c-0.16 0.947-0.363 1.9-0.61 2.86-0.24 0.96-0.36 1.927-0.36 2.9v0c0 0.36 0.017 0.72 0.05 1.08 0.027 0.36 0.09 0.717 0.19 1.07v0c-0.16 0.293-0.24 0.67-0.24 1.13v0c0 0.52 0.09 1 0.27 1.44 0.173 0.44 0.39 0.87 0.65 1.29v0c0.46 0 0.917-0.017 1.37-0.05 0.46-0.033 0.933-0.05 1.42-0.05v0c0.453 0 0.877 0.04 1.27 0.12 0.387 0.087 0.793 0.26 1.22 0.52z" fill="#ffffff" fill-rule="nonzero" stroke="none" stroke-width="1" stroke-linecap="butt" stroke-linejoin="miter" stroke-miterlimit="10" stroke-dasharray="" stroke-dashoffset="0" font-family="none" font-weight="none" font-size="none" text-anchor="none" style="mix-blend-mode: normal" data-fill-palette-color="quaternary" opacity="1"></path></g></svg></g></svg></g><g transform="matrix(1,0,0,1,0,186.98866782814815)"><svg viewBox="0 0 131.51039999999998 15.381408857900416" height="15.381408857900416" width="131.51039999999998"><g transform="matrix(1,0,0,1,0,0)"><svg width="131.51039999999998" viewBox="7.1 -41.5 509.1 59.55" height="15.381408857900416" data-palette-color="#ffffff"><path d="M7.1-9.8L7.1-9.8Q7.1-13.3 7.93-16.68 8.75-20.05 10.25-23.08 11.75-26.1 13.83-28.63 15.9-31.15 18.38-33 20.85-34.85 23.65-35.88 26.45-36.9 29.4-36.9L29.4-36.9Q32.85-36.9 34.77-35.45 36.7-34 36.7-31.4L36.7-31.4Q36.7-30.4 36.43-29.35 36.15-28.3 35.63-27.28 35.1-26.25 34.4-25.3 33.7-24.35 32.85-23.65L32.85-23.65Q31.55-23.85 30.6-24.83 29.65-25.8 29.4-27.1L29.4-27.1Q31.15-28.55 32.18-30.13 33.2-31.7 33.2-33L33.2-33Q33.2-35.2 30.45-35.2L30.45-35.2Q29.3-35.2 28.08-34.73 26.85-34.25 25.6-33.4 24.35-32.55 23.18-31.35 22-30.15 21-28.7L21-28.7Q14.05-18.7 14.05-8.25L14.05-8.25Q14.05-4.55 15.2-2.3 16.35-0.05 18.25 0.35L18.25 0.35Q20.4-0.15 23.7-2.4 27-4.65 30.9-8.25L30.9-8.25Q31.4-7.75 31.5-7.2L31.5-7.2Q30.05-5.3 28.5-3.55 26.95-1.8 25.43-0.35 23.9 1.1 22.43 2.2 20.95 3.3 19.7 3.9L19.7 3.9Q13.5 3.8 10.3 0.35 7.1-3.1 7.1-9.8ZM34.7-0.85L34.7-0.85Q34.7-2.6 35.05-4.98 35.4-7.35 36.07-10.05 36.75-12.75 37.67-15.7 38.6-18.65 39.75-21.6L39.75-21.6Q40.75-24.25 42.07-26.95 43.4-29.65 44.95-32.25 46.5-34.85 48.17-37.2 49.85-39.55 51.55-41.5L51.55-41.5Q52.35-41.5 53.27-41.3 54.2-41.1 55.07-40.78 55.95-40.45 56.67-40 57.4-39.55 57.85-39.1L57.85-39.1Q54.1-35.25 51.1-31.33 48.1-27.4 46.35-23.95L46.35-23.95Q45.4-22.05 44.62-20.4 43.85-18.75 43.2-17.13 42.55-15.5 42.02-13.88 41.5-12.25 41.05-10.45L41.05-10.45Q50.65-22.7 55.3-22.7L55.3-22.7Q56.6-22.7 58.1-21.85 59.6-21 60.75-19.55L60.75-19.55Q59.2-17.85 57.55-15.45 55.9-13.05 54.52-10.63 53.15-8.2 52.27-6.13 51.4-4.05 51.4-3.05L51.4-3.05Q51.4-2.55 51.55-2.38 51.7-2.2 52.2-2.2L52.2-2.2Q52.95-2.2 53.4-2.4 53.85-2.6 53.95-2.6L53.95-2.6Q54.2-2.2 54.25-2.05 54.3-1.9 54.3-1.8L54.3-1.8Q54.3-1.6 53.7-1.23 53.1-0.85 52.27-0.48 51.45-0.1 50.65 0.2 49.85 0.5 49.45 0.5L49.45 0.5Q48.95 0.5 48.45 0.23 47.95-0.05 47.57-0.5 47.2-0.95 46.97-1.5 46.75-2.05 46.75-2.65L46.75-2.65Q46.75-3.4 47.17-4.88 47.6-6.35 48.35-8.33 49.1-10.3 50.15-12.65 51.2-15 52.4-17.45L52.4-17.45Q52.4-17.65 52.2-17.65L52.2-17.65Q52.05-17.65 51.42-17.25 50.8-16.85 50.25-16.45L50.25-16.45Q48.45-15.1 46.62-13.13 44.8-11.15 43.07-8.8 41.35-6.45 39.82-3.83 38.3-1.2 37.2 1.45L37.2 1.45Q37.05 1.8 36.75 2.1 36.45 2.4 36.25 2.4L36.25 2.4Q36.1 2.4 35.82 2.05 35.55 1.7 35.32 1.18 35.1 0.65 34.9 0.1 34.7-0.45 34.7-0.85ZM77.84-20.2L77.84-20.2Q78.34-20.2 79.02-20.03 79.7-19.85 80.25-19.58 80.8-19.3 81.17-19 81.55-18.7 81.55-18.45L81.55-18.45Q80.55-16.35 79.7-14.23 78.84-12.1 78.25-10.15 77.65-8.2 77.32-6.5 77-4.8 77-3.55L77-3.55Q77-2.15 77.3-1.23 77.59-0.3 78.3 0.1L78.3 0.1Q77.7 0.5 76.75 0.75 75.8 1 75.05 1L75.05 1Q72.34 1 72.34-2.7L72.34-2.7Q72.34-5.55 74.25-10.5L74.25-10.5Q73.25-8.2 71.95-6.18 70.65-4.15 69.3-2.6 67.95-1.05 66.57-0.08 65.2 0.9 64.05 1.1L64.05 1.1Q62.2 1 61.05-0.68 59.9-2.35 59.9-4.95L59.9-4.95Q59.9-7.75 61.1-10.85 62.3-13.95 64.17-16.6 66.05-19.25 68.25-21.03 70.45-22.8 72.5-22.9L72.5-22.9Q73-22.75 73.62-22.3 74.25-21.85 74.82-21.25 75.4-20.65 75.8-20.03 76.2-19.4 76.25-18.95L76.25-18.95Q74.25-18.65 72.12-17 70-15.35 68.27-13.03 66.55-10.7 65.45-8.05 64.34-5.4 64.34-3.1L64.34-3.1Q64.34-2.15 65.05-1.9L65.05-1.9Q66.5-2.2 68.4-4.38 70.3-6.55 73-11.1L73-11.1Q73.5-12 74.12-13.1 74.75-14.2 75.4-15.4 76.05-16.6 76.67-17.82 77.3-19.05 77.84-20.2ZM102.69-7.75L102.69-7.75Q101.54-4.1 100.39-1.1 99.24 1.9 97.94 4.42 96.64 6.95 95.14 9.08 93.64 11.2 91.84 13.1L91.84 13.1Q89.54 15.5 87.09 16.78 84.64 18.05 82.19 18.05L82.19 18.05Q80.94 18.05 79.72 17.78 78.49 17.5 77.42 17.03 76.34 16.55 75.52 15.93 74.69 15.3 74.34 14.6L74.34 14.6Q74.34 14 75.04 13.55L75.04 13.55Q75.64 14.1 76.04 14.4 76.44 14.7 76.82 14.9 77.19 15.1 77.62 15.15 78.04 15.2 78.59 15.2L78.59 15.2Q81.44 15.2 84.17 13.53 86.89 11.85 89.32 8.78 91.74 5.7 93.74 1.33 95.74-3.05 97.14-8.45L97.14-8.45Q96.49-7.45 95.54-6 94.59-4.55 93.44-3.13 92.29-1.7 91.07-0.55 89.84 0.6 88.69 1L88.69 1Q87.89 0.95 87.02 0.68 86.14 0.4 85.37-0.1 84.59-0.6 83.99-1.3 83.39-2 83.19-2.9L83.19-2.9Q83.19-4.35 83.29-5.23 83.39-6.1 83.64-7.15L83.64-7.15Q84.09-9.05 84.97-11.45 85.84-13.85 87.02-16.18 88.19-18.5 89.62-20.53 91.04-22.55 92.59-23.7L92.59-23.7Q92.99-23.7 93.59-23.63 94.19-23.55 94.84-23.35 95.49-23.15 96.09-22.88 96.69-22.6 97.14-22.15L97.14-22.15Q96.59-21.65 94.74-18.8 92.89-15.95 90.64-10.6L90.64-10.6Q90.39-10.05 90.04-9 89.69-7.95 89.37-6.8 89.04-5.65 88.79-4.55 88.54-3.45 88.54-2.8L88.54-2.8Q88.54-2.4 88.67-2.2 88.79-2 88.89-1.9L88.89-1.9Q89.79-2.05 91.29-3.38 92.79-4.7 94.69-7.5L94.69-7.5Q95.89-9.3 96.89-11.08 97.89-12.85 98.87-14.65 99.84-16.45 100.89-18.35 101.94-20.25 103.14-22.25L103.14-22.25Q103.79-22.25 104.54-22.1 105.29-21.95 105.99-21.73 106.69-21.5 107.22-21.23 107.74-20.95 107.99-20.65L107.99-20.65Q106.44-17.35 105.09-14.2 103.74-11.05 102.69-7.75ZM130.34-30.3L130.34-30.3Q128.34-30.3 127.26-31.43 126.19-32.55 126.19-34.15L126.19-34.15Q126.19-34.55 126.31-35.1 126.44-35.65 126.64-36.05L126.64-36.05Q127.29-35.75 128.56-35.63 129.84-35.5 131.54-35.5L131.54-35.5Q134.09-35.5 137.31-35.73 140.54-35.95 143.49-36.2 146.44-36.45 148.69-36.68 150.94-36.9 151.59-36.9L151.59-36.9Q153.44-36.9 154.26-35.52 155.09-34.15 155.49-31.85L155.49-31.85Q154.19-31.95 152.91-32.02 151.64-32.1 150.74-32.1L150.74-32.1Q149.14-32.1 147.51-32 145.89-31.9 144.24-31.7L144.24-31.7Q143.54-30.25 142.69-28.28 141.84-26.3 141.01-24.15 140.19-22 139.44-19.88 138.69-17.75 138.14-16.05L138.14-16.05Q137.04-12.75 136.21-9.95 135.39-7.15 134.76-4.73 134.14-2.3 133.69-0.1 133.24 2.1 132.89 4.2L132.89 4.2Q129.54 3.7 127.29 0L127.29 0Q127.69-1.55 128.26-3.38 128.84-5.2 129.61-7.53 130.39-9.85 131.44-12.8 132.49-15.75 133.84-19.5L133.84-19.5Q134.34-20.9 134.89-22.43 135.44-23.95 135.96-25.45 136.49-26.95 136.91-28.35 137.34-29.75 137.64-30.9L137.64-30.9Q135.54-30.65 133.66-30.48 131.79-30.3 130.34-30.3ZM148.84-0.85L148.84-0.85Q148.84-2.6 149.19-4.98 149.54-7.35 150.21-10.05 150.89-12.75 151.81-15.7 152.74-18.65 153.89-21.6L153.89-21.6Q154.89-24.25 156.21-26.95 157.54-29.65 159.09-32.25 160.64-34.85 162.31-37.2 163.99-39.55 165.69-41.5L165.69-41.5Q166.49-41.5 167.41-41.3 168.34-41.1 169.21-40.78 170.09-40.45 170.81-40 171.54-39.55 171.99-39.1L171.99-39.1Q168.24-35.25 165.24-31.33 162.24-27.4 160.49-23.95L160.49-23.95Q159.54-22.05 158.76-20.4 157.99-18.75 157.34-17.13 156.69-15.5 156.16-13.88 155.64-12.25 155.19-10.45L155.19-10.45Q164.79-22.7 169.44-22.7L169.44-22.7Q170.74-22.7 172.24-21.85 173.74-21 174.89-19.55L174.89-19.55Q173.34-17.85 171.69-15.45 170.04-13.05 168.66-10.63 167.29-8.2 166.41-6.13 165.54-4.05 165.54-3.05L165.54-3.05Q165.54-2.55 165.69-2.38 165.84-2.2 166.34-2.2L166.34-2.2Q167.09-2.2 167.54-2.4 167.99-2.6 168.09-2.6L168.09-2.6Q168.34-2.2 168.39-2.05 168.44-1.9 168.44-1.8L168.44-1.8Q168.44-1.6 167.84-1.23 167.24-0.85 166.41-0.48 165.59-0.1 164.79 0.2 163.99 0.5 163.59 0.5L163.59 0.5Q163.09 0.5 162.59 0.23 162.09-0.05 161.71-0.5 161.34-0.95 161.11-1.5 160.89-2.05 160.89-2.65L160.89-2.65Q160.89-3.4 161.31-4.88 161.74-6.35 162.49-8.33 163.24-10.3 164.29-12.65 165.34-15 166.54-17.45L166.54-17.45Q166.54-17.65 166.34-17.65L166.34-17.65Q166.19-17.65 165.56-17.25 164.94-16.85 164.39-16.45L164.39-16.45Q162.59-15.1 160.76-13.13 158.94-11.15 157.21-8.8 155.49-6.45 153.96-3.83 152.44-1.2 151.34 1.45L151.34 1.45Q151.19 1.8 150.89 2.1 150.59 2.4 150.39 2.4L150.39 2.4Q150.24 2.4 149.96 2.05 149.69 1.7 149.46 1.18 149.24 0.65 149.04 0.1 148.84-0.45 148.84-0.85ZM192.63-20.7L192.63-20.7Q192.43-17.6 191.53-15.38 190.63-13.15 188.96-11.48 187.28-9.8 184.88-8.45 182.48-7.1 179.28-5.85L179.28-5.85Q179.28-5.55 179.26-5.23 179.23-4.9 179.23-4.55L179.23-4.55Q179.23-3.9 179.33-3.2 179.43-2.5 179.68-1.9 179.93-1.3 180.38-0.93 180.83-0.55 181.53-0.55L181.53-0.55Q182.88-0.55 184.18-1.15 185.48-1.75 186.66-2.63 187.83-3.5 188.86-4.53 189.88-5.55 190.68-6.4L190.68-6.4Q191.18-5.95 191.53-5.55L191.53-5.55Q189.28-2.55 186.61-0.58 183.93 1.4 181.53 1.95L181.53 1.95Q178.08 1.55 176.16-0.58 174.23-2.7 174.23-5.7L174.23-5.7Q174.23-7.75 174.81-9.88 175.38-12 176.41-13.98 177.43-15.95 178.81-17.7 180.18-19.45 181.76-20.75 183.33-22.05 185.01-22.8 186.68-23.55 188.33-23.55L188.33-23.55Q190.63-23.25 192.63-20.7ZM189.18-19.05L189.18-19.05Q187.83-18.85 186.38-17.95 184.93-17.05 183.66-15.55 182.38-14.05 181.33-12.05 180.28-10.05 179.68-7.75L179.68-7.75Q183.68-9.75 186.33-12.68 188.98-15.6 189.18-19.05ZM200.83 1.75L200.83 1.75Q197.98 1.45 196.28-0.75 194.58-2.95 194.58-6.35L194.58-6.35Q194.58-8.35 195.18-10.5 195.78-12.65 196.88-14.68 197.98-16.7 199.48-18.5 200.98-20.3 202.73-21.6L202.73-21.6Q205.48-23.65 207.88-23.65L207.88-23.65Q209.48-22.8 211.03-20.1L211.03-20.1Q211.28-20.1 211.48-20.13 211.68-20.15 211.93-20.15L211.93-20.15Q214.58-20.15 214.58-15.45L214.58-15.45Q214.58-12.3 213.56-9.47 212.53-6.65 210.71-4.35 208.88-2.05 206.36-0.48 203.83 1.1 200.83 1.75ZM203.38-14L203.38-14Q202.53-12.85 201.78-11.5 201.03-10.15 200.48-8.78 199.93-7.4 199.63-6.13 199.33-4.85 199.33-3.85L199.33-3.85Q199.33-2.65 199.73-1.55 200.13-0.45 200.63-0.3L200.63-0.3Q202.88-0.8 204.76-2.18 206.63-3.55 208.01-5.6 209.38-7.65 210.16-10.25 210.93-12.85 210.93-15.8L210.93-15.8Q210.93-17.1 210.78-17.85 210.63-18.6 210.28-19.15L210.28-19.15Q208.08-18.5 206.36-17.05 204.63-15.6 203.38-14ZM231.13-9.8L231.13-9.8Q231.13-13.3 231.95-16.68 232.78-20.05 234.28-23.08 235.78-26.1 237.85-28.63 239.93-31.15 242.4-33 244.88-34.85 247.68-35.88 250.48-36.9 253.43-36.9L253.43-36.9Q256.88-36.9 258.8-35.45 260.73-34 260.73-31.4L260.73-31.4Q260.73-30.4 260.45-29.35 260.18-28.3 259.65-27.28 259.13-26.25 258.43-25.3 257.73-24.35 256.88-23.65L256.88-23.65Q255.58-23.85 254.63-24.83 253.68-25.8 253.43-27.1L253.43-27.1Q255.18-28.55 256.2-30.13 257.23-31.7 257.23-33L257.23-33Q257.23-35.2 254.48-35.2L254.48-35.2Q253.33-35.2 252.1-34.73 250.88-34.25 249.63-33.4 248.38-32.55 247.2-31.35 246.03-30.15 245.03-28.7L245.03-28.7Q238.08-18.7 238.08-8.25L238.08-8.25Q238.08-4.55 239.23-2.3 240.38-0.05 242.28 0.35L242.28 0.35Q244.43-0.15 247.73-2.4 251.03-4.65 254.93-8.25L254.93-8.25Q255.43-7.75 255.53-7.2L255.53-7.2Q254.08-5.3 252.53-3.55 250.98-1.8 249.45-0.35 247.93 1.1 246.45 2.2 244.98 3.3 243.73 3.9L243.73 3.9Q237.53 3.8 234.33 0.35 231.13-3.1 231.13-9.8ZM276.32-20.2L276.32-20.2Q276.82-20.2 277.5-20.03 278.17-19.85 278.72-19.58 279.27-19.3 279.65-19 280.02-18.7 280.02-18.45L280.02-18.45Q279.02-16.35 278.17-14.23 277.32-12.1 276.72-10.15 276.12-8.2 275.8-6.5 275.47-4.8 275.47-3.55L275.47-3.55Q275.47-2.15 275.77-1.23 276.07-0.3 276.77 0.1L276.77 0.1Q276.17 0.5 275.22 0.75 274.27 1 273.52 1L273.52 1Q270.82 1 270.82-2.7L270.82-2.7Q270.82-5.55 272.72-10.5L272.72-10.5Q271.72-8.2 270.42-6.18 269.12-4.15 267.77-2.6 266.42-1.05 265.05-0.08 263.67 0.9 262.52 1.1L262.52 1.1Q260.67 1 259.52-0.68 258.37-2.35 258.37-4.95L258.37-4.95Q258.37-7.75 259.57-10.85 260.77-13.95 262.65-16.6 264.52-19.25 266.72-21.03 268.92-22.8 270.97-22.9L270.97-22.9Q271.47-22.75 272.1-22.3 272.72-21.85 273.3-21.25 273.87-20.65 274.27-20.03 274.67-19.4 274.72-18.95L274.72-18.95Q272.72-18.65 270.6-17 268.47-15.35 266.75-13.03 265.02-10.7 263.92-8.05 262.82-5.4 262.82-3.1L262.82-3.1Q262.82-2.15 263.52-1.9L263.52-1.9Q264.97-2.2 266.87-4.38 268.77-6.55 271.47-11.1L271.47-11.1Q271.97-12 272.6-13.1 273.22-14.2 273.87-15.4 274.52-16.6 275.15-17.82 275.77-19.05 276.32-20.2ZM282.47-8.8L282.47-8.8Q282.47-11.65 283.65-14.33 284.82-17 286.75-19.07 288.67-21.15 291.15-22.43 293.62-23.7 296.27-23.7L296.27-23.7Q298.87-23.7 300.27-22.4 301.67-21.1 301.67-18.7L301.67-18.7Q301.67-17.55 301.35-16.48 301.02-15.4 300.5-14.55 299.97-13.7 299.27-13.18 298.57-12.65 297.87-12.65L297.87-12.65Q297.27-12.65 296.65-13.03 296.02-13.4 295.62-14L295.62-14Q298.97-17.05 298.97-19.55L298.97-19.55Q298.97-21 297.82-21L297.82-21Q296.82-21 295.32-20.05 293.82-19.1 292.42-17.55L292.42-17.55Q290.27-15.15 289.15-12.23 288.02-9.3 288.02-6.1L288.02-6.1Q288.02-2.05 289.82-1.25L289.82-1.25Q290.57-1.35 291.57-1.7 292.57-2.05 293.72-2.63 294.87-3.2 296.1-3.95 297.32-4.7 298.47-5.55L298.47-5.55Q298.67-5.4 298.82-5.1 298.97-4.8 298.97-4.55L298.97-4.55Q298.12-3.5 297.02-2.5 295.92-1.5 294.72-0.68 293.52 0.15 292.4 0.73 291.27 1.3 290.42 1.45L290.42 1.45Q288.77 1.3 287.32 0.43 285.87-0.45 284.8-1.85 283.72-3.25 283.1-5.05 282.47-6.85 282.47-8.8ZM303.12-0.85L303.12-0.85Q303.12-2.6 303.47-4.98 303.82-7.35 304.49-10.05 305.17-12.75 306.09-15.7 307.02-18.65 308.17-21.6L308.17-21.6Q309.17-24.25 310.49-26.95 311.82-29.65 313.37-32.25 314.92-34.85 316.59-37.2 318.27-39.55 319.97-41.5L319.97-41.5Q320.77-41.5 321.69-41.3 322.62-41.1 323.49-40.78 324.37-40.45 325.09-40 325.82-39.55 326.27-39.1L326.27-39.1Q322.52-35.25 319.52-31.33 316.52-27.4 314.77-23.95L314.77-23.95Q313.82-22.05 313.04-20.4 312.27-18.75 311.62-17.13 310.97-15.5 310.44-13.88 309.92-12.25 309.47-10.45L309.47-10.45Q319.07-22.7 323.72-22.7L323.72-22.7Q325.02-22.7 326.52-21.85 328.02-21 329.17-19.55L329.17-19.55Q327.62-17.85 325.97-15.45 324.32-13.05 322.94-10.63 321.57-8.2 320.69-6.13 319.82-4.05 319.82-3.05L319.82-3.05Q319.82-2.55 319.97-2.38 320.12-2.2 320.62-2.2L320.62-2.2Q321.37-2.2 321.82-2.4 322.27-2.6 322.37-2.6L322.37-2.6Q322.62-2.2 322.67-2.05 322.72-1.9 322.72-1.8L322.72-1.8Q322.72-1.6 322.12-1.23 321.52-0.85 320.69-0.48 319.87-0.1 319.07 0.2 318.27 0.5 317.87 0.5L317.87 0.5Q317.37 0.5 316.87 0.23 316.37-0.05 315.99-0.5 315.62-0.95 315.39-1.5 315.17-2.05 315.17-2.65L315.17-2.65Q315.17-3.4 315.59-4.88 316.02-6.35 316.77-8.33 317.52-10.3 318.57-12.65 319.62-15 320.82-17.45L320.82-17.45Q320.82-17.65 320.62-17.65L320.62-17.65Q320.47-17.65 319.84-17.25 319.22-16.85 318.67-16.45L318.67-16.45Q316.87-15.1 315.04-13.13 313.22-11.15 311.49-8.8 309.77-6.45 308.24-3.83 306.72-1.2 305.62 1.45L305.62 1.45Q305.47 1.8 305.17 2.1 304.87 2.4 304.67 2.4L304.67 2.4Q304.52 2.4 304.24 2.05 303.97 1.7 303.74 1.18 303.52 0.65 303.32 0.1 303.12-0.45 303.12-0.85ZM343.16-9.8L343.16-9.8Q343.16-13.3 343.99-16.68 344.81-20.05 346.31-23.08 347.81-26.1 349.89-28.63 351.96-31.15 354.44-33 356.91-34.85 359.71-35.88 362.51-36.9 365.46-36.9L365.46-36.9Q368.91-36.9 370.84-35.45 372.76-34 372.76-31.4L372.76-31.4Q372.76-30.4 372.49-29.35 372.21-28.3 371.69-27.28 371.16-26.25 370.46-25.3 369.76-24.35 368.91-23.65L368.91-23.65Q367.61-23.85 366.66-24.83 365.71-25.8 365.46-27.1L365.46-27.1Q367.21-28.55 368.24-30.13 369.26-31.7 369.26-33L369.26-33Q369.26-35.2 366.51-35.2L366.51-35.2Q365.36-35.2 364.14-34.73 362.91-34.25 361.66-33.4 360.41-32.55 359.24-31.35 358.06-30.15 357.06-28.7L357.06-28.7Q350.11-18.7 350.11-8.25L350.11-8.25Q350.11-4.55 351.26-2.3 352.41-0.05 354.31 0.35L354.31 0.35Q356.46-0.15 359.76-2.4 363.06-4.65 366.96-8.25L366.96-8.25Q367.46-7.75 367.56-7.2L367.56-7.2Q366.11-5.3 364.56-3.55 363.01-1.8 361.49-0.35 359.96 1.1 358.49 2.2 357.01 3.3 355.76 3.9L355.76 3.9Q349.56 3.8 346.36 0.35 343.16-3.1 343.16-9.8ZM384.71-1.1L384.71-1.1Q383.76-1.9 383.44-3.1 383.11-4.3 383.11-5.15L383.11-5.15Q383.11-6.2 383.36-6.95L383.36-6.95Q383.16-6.95 382.46-6.15 381.76-5.35 380.94-4.25 380.11-3.15 379.31-2.1 378.51-1.05 378.11-0.55L378.11-0.55Q377.46 0.15 376.89 0.55 376.31 0.95 375.96 1L375.96 1Q375.16 0.95 374.29 0.68 373.41 0.4 372.64-0.1 371.86-0.6 371.29-1.3 370.71-2 370.51-2.9L370.51-2.9Q370.51-4.3 370.59-5.2 370.66-6.1 370.91-7.15L370.91-7.15Q371.36-9.05 372.24-11.45 373.11-13.85 374.26-16.18 375.41-18.5 376.84-20.53 378.26-22.55 379.86-23.7L379.86-23.7Q380.31-23.7 380.91-23.63 381.51-23.55 382.14-23.35 382.76-23.15 383.34-22.88 383.91-22.6 384.31-22.15L384.31-22.15Q383.86-21.65 382.04-18.8 380.21-15.95 377.96-10.6L377.96-10.6Q377.71-10.05 377.36-9 377.01-7.95 376.66-6.8 376.31-5.65 376.09-4.55 375.86-3.45 375.86-2.8L375.86-2.8Q375.86-2.4 375.99-2.2 376.11-2 376.21-1.9L376.21-1.9Q376.96-2.2 378.11-3.55 379.26-4.9 381.31-7.7L381.31-7.7Q381.81-8.4 382.49-9.3 383.16-10.2 383.86-11.23 384.56-12.25 385.19-13.35 385.81-14.45 386.21-15.55L386.21-15.55Q386.41-16.15 386.74-16.98 387.06-17.8 387.54-18.7 388.01-19.6 388.64-20.53 389.26-21.45 390.11-22.25L390.11-22.25Q390.76-22.25 391.51-22.1 392.26-21.95 392.94-21.73 393.61-21.5 394.11-21.23 394.61-20.95 394.86-20.65L394.86-20.65Q393.96-18.45 392.86-16.3 391.76-14.15 390.81-12.08 389.86-10 389.21-7.95 388.56-5.9 388.56-3.95L388.56-3.95Q388.56-2.9 388.74-2.13 388.91-1.35 389.11-0.83 389.31-0.3 389.49 0.05 389.66 0.4 389.66 0.65L389.66 0.65Q389.66 0.7 389.56 0.8L389.56 0.8Q389.51 0.85 389.46 0.85L389.46 0.85Q389.11 0.85 388.56 0.7 388.01 0.55 387.34 0.28 386.66 0 385.99-0.35 385.31-0.7 384.71-1.1ZM412.81-20.2L412.81-20.2Q413.31-20.2 413.98-20.03 414.66-19.85 415.21-19.58 415.76-19.3 416.13-19 416.51-18.7 416.51-18.45L416.51-18.45Q415.51-16.35 414.66-14.23 413.81-12.1 413.21-10.15 412.61-8.2 412.28-6.5 411.96-4.8 411.96-3.55L411.96-3.55Q411.96-2.15 412.26-1.23 412.56-0.3 413.26 0.1L413.26 0.1Q412.66 0.5 411.71 0.75 410.76 1 410.01 1L410.01 1Q407.31 1 407.31-2.7L407.31-2.7Q407.31-5.55 409.21-10.5L409.21-10.5Q408.21-8.2 406.91-6.18 405.61-4.15 404.26-2.6 402.91-1.05 401.53-0.08 400.16 0.9 399.01 1.1L399.01 1.1Q397.16 1 396.01-0.68 394.86-2.35 394.86-4.95L394.86-4.95Q394.86-7.75 396.06-10.85 397.26-13.95 399.13-16.6 401.01-19.25 403.21-21.03 405.41-22.8 407.46-22.9L407.46-22.9Q407.96-22.75 408.58-22.3 409.21-21.85 409.78-21.25 410.36-20.65 410.76-20.03 411.16-19.4 411.21-18.95L411.21-18.95Q409.21-18.65 407.08-17 404.96-15.35 403.23-13.03 401.51-10.7 400.41-8.05 399.31-5.4 399.31-3.1L399.31-3.1Q399.31-2.15 400.01-1.9L400.01-1.9Q401.46-2.2 403.36-4.38 405.26-6.55 407.96-11.1L407.96-11.1Q408.46-12 409.08-13.1 409.71-14.2 410.36-15.4 411.01-16.6 411.63-17.82 412.26-19.05 412.81-20.2ZM465.6-27.55L465.6-27.55Q465.6-24.45 463.9-22.03 462.2-19.6 459.25-18L459.25-18Q461.15-16.7 462.28-14.83 463.4-12.95 463.4-10.7L463.4-10.7Q463.4-8 461.78-5.38 460.15-2.75 457.45-0.73 454.75 1.3 451.3 2.55 447.85 3.8 444.25 3.8L444.25 3.8Q440.35 3.8 437.43 2.33 434.5 0.85 432.85-1.85L432.85-1.85Q433.35-3.35 434.18-5.58 435-7.8 436-10.28 437-12.75 438.03-15.2 439.05-17.65 439.95-19.6L439.95-19.6Q441.85-23.85 443.35-26.65 444.85-29.45 446.1-31.1L446.1-31.1Q443.35-30.25 441.1-29.18 438.85-28.1 437.8-27.1L437.8-27.1Q437.35-27.4 436.88-28 436.4-28.6 435.98-29.33 435.55-30.05 435.28-30.8 435-31.55 434.95-32.15L434.95-32.15Q436.25-33.05 438.33-33.88 440.4-34.7 442.85-35.3 445.3-35.9 447.88-36.25 450.45-36.6 452.8-36.6L452.8-36.6Q458.8-36.6 462.2-34.2 465.6-31.8 465.6-27.55ZM446.55-15.6L446.55-15.6Q445.6-16.05 444.8-16.95L444.8-16.95Q443.65-14.4 442.63-11.95 441.6-9.5 440.8-7.4 440-5.3 439.5-3.75 439-2.2 438.95-1.5L438.95-1.5Q439.65-1.1 440.63-0.9 441.6-0.7 443.05-0.7L443.05-0.7Q446.45-0.7 449.55-1.65 452.65-2.6 455-4.23 457.35-5.85 458.75-7.95 460.15-10.05 460.15-12.35L460.15-12.35Q460.15-15.65 457.3-17.1L457.3-17.1Q453.4-15.5 448.5-15.5L448.5-15.5Q447.8-15.5 447.43-15.5 447.05-15.5 446.55-15.6ZM456.25-32.95L456.25-32.95Q455.2-32.95 454.03-32.83 452.85-32.7 451.55-32.45L451.55-32.45Q451.75-32.25 451.88-32.02 452-31.8 452.1-31.55L452.1-31.55Q451.65-30.95 451-29.8 450.35-28.65 449.55-27.13 448.75-25.6 447.88-23.75 447-21.9 446.1-19.95L446.1-19.95Q446.95-20.15 448.18-20.28 449.4-20.4 450.6-20.4L450.6-20.4Q451.25-20.4 451.88-20.35 452.5-20.3 453.1-20.2L453.1-20.2Q455.5-20.6 457.43-21.38 459.35-22.15 460.75-23.18 462.15-24.2 462.9-25.45 463.65-26.7 463.65-28.1L463.65-28.1Q463.65-30.5 461.75-31.73 459.85-32.95 456.25-32.95ZM484.15-20.2L484.15-20.2Q484.65-20.2 485.33-20.03 486-19.85 486.55-19.58 487.1-19.3 487.48-19 487.85-18.7 487.85-18.45L487.85-18.45Q486.85-16.35 486-14.23 485.15-12.1 484.55-10.15 483.95-8.2 483.63-6.5 483.3-4.8 483.3-3.55L483.3-3.55Q483.3-2.15 483.6-1.23 483.9-0.3 484.6 0.1L484.6 0.1Q484 0.5 483.05 0.75 482.1 1 481.35 1L481.35 1Q478.65 1 478.65-2.7L478.65-2.7Q478.65-5.55 480.55-10.5L480.55-10.5Q479.55-8.2 478.25-6.18 476.95-4.15 475.6-2.6 474.25-1.05 472.88-0.08 471.5 0.9 470.35 1.1L470.35 1.1Q468.5 1 467.35-0.68 466.2-2.35 466.2-4.95L466.2-4.95Q466.2-7.75 467.4-10.85 468.6-13.95 470.48-16.6 472.35-19.25 474.55-21.03 476.75-22.8 478.8-22.9L478.8-22.9Q479.3-22.75 479.93-22.3 480.55-21.85 481.13-21.25 481.7-20.65 482.1-20.03 482.5-19.4 482.55-18.95L482.55-18.95Q480.55-18.65 478.43-17 476.3-15.35 474.58-13.03 472.85-10.7 471.75-8.05 470.65-5.4 470.65-3.1L470.65-3.1Q470.65-2.15 471.35-1.9L471.35-1.9Q472.8-2.2 474.7-4.38 476.6-6.55 479.3-11.1L479.3-11.1Q479.8-12 480.43-13.1 481.05-14.2 481.7-15.4 482.35-16.6 482.98-17.82 483.6-19.05 484.15-20.2ZM498.5-24.25L498.5-24.25Q499.8-23.85 500.95-22.48 502.1-21.1 502.65-19.45L502.65-19.45Q502.1-18.1 500.95-16.2 499.8-14.3 498.65-12.33 497.5-10.35 496.57-8.58 495.65-6.8 495.5-5.65L495.5-5.65Q496.3-6.5 497.27-7.63 498.25-8.75 499.17-9.88 500.1-11 500.9-11.93 501.7-12.85 502.15-13.3L502.15-13.3Q503.1-14.3 504.4-15.63 505.7-16.95 507.12-18.13 508.55-19.3 510-20.13 511.45-20.95 512.65-20.95L512.65-20.95Q513.95-20.95 514.82-20.08 515.7-19.2 516.2-18.25L516.2-18.25Q516.2-18.15 515.82-17.98 515.45-17.8 514.75-17L514.75-17Q514.05-16.1 513.17-14.53 512.3-12.95 511.47-11.13 510.65-9.3 510.1-7.4 509.55-5.5 509.55-3.95L509.55-3.95Q509.55-2.7 509.87-2.35 510.2-2 510.8-2L510.8-2Q511.35-2 511.95-2.25 512.55-2.5 512.9-2.5L512.9-2.5Q513.1-2.4 513.22-2.08 513.35-1.75 513.35-1.5L513.35-1.5Q512.95-1.15 512.4-0.8 511.85-0.45 511.25-0.15 510.65 0.15 510.07 0.35 509.5 0.55 509.05 0.55L509.05 0.55Q507.6 0.55 506.67 0.13 505.75-0.3 505.22-1 504.7-1.7 504.5-2.68 504.3-3.65 504.3-4.75L504.3-4.75Q504.3-5.35 504.4-6.1 504.5-6.85 504.8-7.88 505.1-8.9 505.65-10.33 506.2-11.75 507.05-13.75L507.05-13.75Q506.95-13.75 505.7-13.05 504.45-12.35 503-10.9L503-10.9Q500.65-8.65 498.77-6.45 496.9-4.25 494.95-1.55L494.95-1.55Q493.85 0 493.02 1.07 492.2 2.15 491.6 2.5L491.6 2.5Q490.55 1.9 490.05 0.83 489.55-0.25 489.3-1.4L489.3-1.4Q489.3-2.35 489.57-3.8 489.85-5.25 490.32-7.03 490.8-8.8 491.5-10.75 492.2-12.7 493.05-14.65L493.05-14.65Q494.95-19.05 496.52-21.55 498.1-24.05 498.5-24.25Z" opacity="1" transform="matrix(1,0,0,1,0,0)" fill="#ffffff" class="slogan-text-1" data-fill-palette-color="quaternary" id="text-1"></path></svg></g></svg></g></svg></g></svg></g><g transform="matrix(1,0,0,1,0,62.45907432350252)"><svg viewBox="0 0 138.432 77.45192803904351" height="77.45192803904351" width="138.432"><g><svg xmlns="http://www.w3.org/2000/svg" xmlns:xlink="http://www.w3.org/1999/xlink" version="1.1" x="0" y="0" viewBox="1.2490000000000006 22.202 97.94200000000001 54.798" enable-background="new 0 0 100 100" xml:space="preserve" height="77.45192803904351" width="138.432" class="icon-icon-0" data-fill-palette-color="quaternary" id="icon-0"><path d="M89.777 48.451l1.267-0.957c0 0-3.817-1.918-6.47-1.74-1.257 0.084-2.37 0.385-3.364 0.844 6.25-4.389 10.231-3.018 11.55-4.783 1.012-1.357-3.632-6.779-7.121-10.726-1.367-1.546-3.268-3.169-5.072-4.571 0.014-0.481-0.023-2.968-2.217-4.316l-1.229 1.791c-1.16-0.806-1.934-1.3-1.934-1.3s-7.137 2.509-6.106 3.453c0.948 0.869 8.679 3.264 11.084 6.022l-1.48 1.922 0.98 1.029c0 0 0.567-0.505 0.738 0.281 0.232 1.063-1.749 0.403-1.749 0.403l-1.715-1.881v-3.299H73.93l-0.834-0.914c0 0-4.189 0.457-4.662 1.788-0.286 0.643 0.365 2.86 0.365 2.86l-0.728 0.025c-0.065-0.262-0.25-0.616-0.712-0.923-0.283-0.189-1.906-0.928-4.13-1.748-0.061-0.39-0.303-0.713-0.659-0.819l-1.054-0.312c-0.314-0.093-0.646 0.005-0.902 0.231-3.489-1.114-7.598-2.063-10.458-1.665-0.967 0.23-5.183 0.704-7.597 6.137l-10.14 0.358c-2.146-0.419-4.425-1.172-6.544-2.473-0.574-0.352-0.893-0.212-1.075 0.018-0.583-0.668-1.071-1.343-1.409-2.005 0.173 0.02 0.3 0.021 0.37 0.001 0.669-0.418 1.341-3.624 0.569-3.708-0.771-0.086-14.027-1.573-14.586-1.63-0.33-0.034-0.823 0.226-0.792 0.596l-4.056-0.275 1.623 2.647c-2.326 0.406-2.952 1.214-2.952 1.214H2.108V31.4l0.911 1.594 6.983 3.126-0.3 0.558-6.307 0.601v0.59l1.201 0.868v1.287h0.772l0.944-1.287h1.458c0 0-2.741 2.477-2.87 2.477-0.187 0-1.356 0-1.356 0L1.25 46.63l1.501-0.386 0.772-1.673h0.729l8.624-7.292 7.77 1.56c0.759 0.641 2.044 1.317 4.172 1.94 4.14 1.211 4.14 1.211 4.14 1.211l-2.269 1.769-4.517-0.906 1.815 3.246 6.564 3.904-2.122 1.517c-2.832-3.309-7.039-5.406-11.736-5.406-8.53 0-15.444 6.914-15.444 15.445C1.25 70.086 8.165 77 16.694 77c7.856 0 14.342-5.867 15.317-13.459 0.976-0.32 2.038-0.668 3.199-1.045l1.077 2.881-1.403 0.549-2.599 3.604h37.137c0 0 0-0.027 0.002-0.074l0.017-0.623c0.058-1.969 0.244-7.549 0.555-9.201 0.221-1.174 0.616-2.146 1.131-3.01-0.681 1.684-1.061 3.523-1.061 5.453 0 8.043 6.521 14.562 14.562 14.562 8.044 0 14.563-6.52 14.563-14.562C99.191 55.846 95.278 50.532 89.777 48.451zM84.887 36.898c0.747 0.095 2.139 0.595 3.812 0.639 2.59 0.066 3.635 2.862 3.381 3.673-0.265 0.846-1.903 0.697-3.181 0.516C86.644 41.408 83.956 36.781 84.887 36.898zM18.645 51.838c0.04-0.104 0.085-0.195 0.135-0.277 2.123 0.406 4.003 1.496 5.399 3.035l-0.551 0.393-4.176 0.086v-0.129h-1.61C17.991 53.887 18.259 52.852 18.645 51.838zM19.892 56.543c-0.116-0.07-0.174 0.057-0.252 0.102-0.064 0.039-0.127 0.053-0.187 0.053v-0.764l2.94-0.061-1.727 1.232c-0.007-0.01-0.013-0.018-0.022-0.027-0.06-0.059-0.131-0.074-0.208-0.041-0.048 0.02-0.091 0.051-0.141 0.068-0.214 0.068-0.374-0.049-0.349-0.262C19.958 56.736 20.014 56.617 19.892 56.543zM16.794 60.781c0.306 0.002 0.577 0.295 0.572 0.617-0.004 0.332-0.297 0.594-0.652 0.584-0.273-0.008-0.531-0.303-0.528-0.609C16.189 61.027 16.444 60.777 16.794 60.781zM10.177 67.713c-0.121 0.078-0.239 0.133-0.353 0.166-0.389 0.115-0.735-0.031-1.03-0.426-0.68-0.91-1.206-1.875-1.571-2.902l0.722-0.322L7.726 63.74l-0.669 0.301c-0.23-0.773-0.372-1.58-0.418-2.42-0.017-0.322-0.017-0.639 0.009-0.955C6.678 60.281 6.901 60 7.239 59.893c0.069-0.021 0.141-0.039 0.218-0.047 0.326-0.027 0.652-0.055 0.868-0.045 1.047 0.008 2.04 0.119 3.003 0.314-0.044 0.246-0.08 0.502-0.097 0.773-0.127 1.932 0.339 3.484 1.383 4.611 0.033 0.033 0.068 0.064 0.101 0.1C11.958 66.391 11.119 67.102 10.177 67.713zM11.812 58.605c-1.113-0.508-2.156-1.152-3.136-1.92-0.116-0.092-0.209-0.188-0.281-0.289 1.406-2.512 3.888-4.338 6.822-4.857 0.04 0.061 0.076 0.127 0.106 0.202 0.41 1.035 0.682 2.106 0.846 3.204h-0.467v0.553C14.372 55.92 12.691 56.799 11.812 58.605zM16.935 70.947c-1.461 0-2.845-0.322-4.09-0.896-0.003-0.08 0-0.162 0.018-0.248 0.15-0.736 0.414-1.438 0.702-2.129 0.154-0.369 0.323-0.73 0.503-1.084 0.22 0.115 0.44 0.213 0.662 0.299 0.021 0.008 0.043 0.016 0.064 0.023 0.272 0.102 0.542 0.184 0.802 0.248 0.039 0.012 0.078 0.02 0.117 0.029 0.76 0.176 1.436 0.217 1.847 0.221 0.104 0.002 0.205 0.002 0.305 0.002 0.889 0 1.63-0.045 2.431-0.174 0.331 0.715 0.6 1.455 0.817 2.217 0.048 0.17 0.087 0.34 0.083 0.518C19.908 70.598 18.462 70.947 16.935 70.947zM24.123 67.797c-0.074-0.023-0.147-0.053-0.219-0.096-0.482-0.283-0.925-0.623-1.355-0.979 0.823-0.232 1.791-0.537 3.003-0.932C25.16 66.52 24.68 67.195 24.123 67.797zM26.043 64.727c-1.887 0.623-3.206 1.041-4.263 1.32-0.161-0.152-0.32-0.305-0.474-0.463 0.043-0.002 0.083-0.016 0.118-0.057 0.072-0.088-0.015-0.16-0.051-0.236-0.012-0.025-0.027-0.051-0.038-0.078-0.086-0.219 0.048-0.389 0.282-0.354 0.069 0.01 0.136 0.031 0.205 0.039 0.121 0.014 0.164-0.047 0.108-0.156-0.044-0.088-0.108-0.166-0.147-0.256-0.066-0.154 0.029-0.311 0.196-0.33 0.052-0.006 0.104-0.002 0.156 0.002 0.164 0.008 0.241-0.107 0.166-0.254-0.021-0.041-0.054-0.076-0.082-0.113-0.07-0.092-0.116-0.189-0.063-0.305 0.051-0.111 0.151-0.133 0.261-0.137 0.087-0.004 0.187-0.006 0.221-0.104 0.037-0.105-0.053-0.158-0.122-0.207-0.115-0.082-0.117-0.195-0.1-0.312 0.017-0.109 0.096-0.17 0.197-0.197 0.084-0.023 0.179-0.033 0.198-0.139 0.021-0.115-0.082-0.141-0.151-0.186-0.109-0.072-0.167-0.148-0.177-0.225 1.359-0.223 2.814-0.455 4.229-0.68C26.696 62.51 26.459 63.662 26.043 64.727zM30.793 42.912c0.086-0.022 1.668 0.451 1.668 0.451l-5.916 2.66L30.793 42.912zM32.102 62.609c0.023-0.35 0.036-0.701 0.036-1.053 0-0.34-0.012-0.674-0.033-1.006 1.371-0.215 2.249-0.348 2.249-0.348l0.556 1.488C33.901 62.018 32.968 62.324 32.102 62.609zM34.998 57.605l-2.972 0.525c-0.183-0.844-0.438-1.658-0.752-2.441l5.384-0.113L34.998 57.605zM31.978 54.815l2.333-1.114c0.012 0.047 0.729 0.57 1.38 1.038L31.978 54.815zM37.549 51.385l-10.253-4.247 6.194-2.896c0 0 3.888 4.226 4.059 4.956C37.722 49.927 37.549 51.385 37.549 51.385zM41.561 47.138l-1.566-1.352-1.63 1.352-1.062-1.641 1.062-1.062 3.196 1.073V47.138zM51.696 57.199c-2.038 0.584-4.164-0.596-4.748-2.635s0.596-4.165 2.634-4.748c0.029-0.008 0.057-0.014 0.086-0.022 0.003 0.008 0.007 0.015 0.01 0.022-1.801 0.725-2.802 2.705-2.256 4.613 0.561 1.957 2.546 3.123 4.509 2.691C51.854 57.15 51.776 57.176 51.696 57.199zM56.766 59.775c-1.032 0.627-2.378 0.295-3.003-0.738s-0.295-2.377 0.739-3.002c0.041-0.025 0.081-0.047 0.123-0.068-0.94 0.652-1.222 1.932-0.621 2.924 0.601 0.994 1.864 1.338 2.88 0.809C56.845 59.727 56.807 59.752 56.766 59.775zM60.312 54.615l-7.608-4.29 13.386 4.29H60.312zM71.844 44.612c0 0-7.88 4.931-10.574 5.083-1.335 0.122-2.768-0.58-3.196-0.794-0.43-0.213 0-0.493 0-0.493L68.86 43.27c0 0 2.532 0.182 3.263 0.591C72.632 44.146 71.844 44.612 71.844 44.612zM86.979 52.876c0.08-0.188 0.179-0.336 0.295-0.446 2.833 0.715 5.175 2.658 6.424 5.232-0.066 0.107-0.155 0.209-0.274 0.297-0.8 0.596-1.657 1.09-2.558 1.506-0.832-1.98-2.605-3.467-4.76-3.9C86.312 54.649 86.606 53.754 86.979 52.876zM84.817 61.512c0.307 0.002 0.576 0.295 0.572 0.617-0.005 0.332-0.297 0.594-0.651 0.584-0.274-0.008-0.532-0.305-0.529-0.609C84.211 61.756 84.467 61.508 84.817 61.512zM83.472 52.233c0.069 0.081 0.127 0.179 0.168 0.29 0.113 0.305 0.222 0.611 0.268 0.82 0.187 0.713 0.317 1.414 0.401 2.111-0.312 0.021-0.616 0.066-0.914 0.131l-1.288-3.057C82.55 52.399 83.005 52.3 83.472 52.233zM77.97 68.066c-0.153 0.092-0.309 0.176-0.484 0.217-0.029 0.008-0.058 0.012-0.086 0.016-1.458-1.713-2.34-3.932-2.34-6.357 0-0.547 0.047-1.084 0.133-1.607 0.095-0.039 0.2-0.062 0.316-0.07 0.487-0.029 0.973-0.01 1.456 0.035l-0.258 0.824-0.688 0.818 0.516 2.227 1.987-0.186c0.307 0.979 0.839 1.859 1.533 2.582C79.406 67.125 78.708 67.623 77.97 68.066zM78.508 55.967l-1.269 1.553c-0.143-0.117-0.284-0.238-0.425-0.363-0.132-0.119-0.229-0.242-0.29-0.369 0.869-1.406 2.085-2.574 3.526-3.389l1.276 3.027c-0.39 0.242-0.752 0.525-1.081 0.842L78.508 55.967zM88.565 71.029c-1.142 0.465-2.388 0.723-3.696 0.723-0.042 0-0.084-0.002-0.126-0.002v-0.723h-0.534v0.699c-1.393-0.092-2.706-0.475-3.88-1.088-0.008-0.115 0.004-0.232 0.036-0.354 0.161-0.582 0.396-1.139 0.649-1.686 0.144-0.311 0.299-0.615 0.461-0.912 0.976 0.572 2.111 0.9 3.324 0.9 1.039 0 2.021-0.242 2.896-0.67 0.264 0.605 0.487 1.234 0.661 1.896 0.062 0.305 0.19 0.639 0.218 0.998C88.581 70.887 88.575 70.959 88.565 71.029zM91.683 68.996c-0.123-0.035-0.251-0.1-0.385-0.191-0.787-0.545-1.49-1.18-2.129-1.879 1.354-1.205 2.208-2.959 2.208-4.914 0-0.287-0.021-0.57-0.057-0.848 0.948-0.096 1.903-0.098 2.867-0.002 0.186 0.018 0.339 0.062 0.467 0.127 0.016 0.217 0.025 0.434 0.025 0.652C94.68 64.713 93.529 67.213 91.683 68.996z" fill="#ffffff" data-fill-palette-color="quaternary"></path></svg></g></svg></g></svg></g></svg></g></svg></g><defs></defs></svg><rect width="320" height="360" fill="none" stroke="none" visibility="hidden"></rect></g></svg></g></svg>